<?xml version="1.0" encoding="utf-8" ?>
<svg xmlns="http://www.w3.org/2000/svg" xmlns:xlink="http://www.w3.org/1999/xlink" width="308" height="94">
	<path fill="#0243B7" transform="scale(0.234043 0.235)" d="M792.221 265.272C793.139 265.122 794.287 264.863 795.203 265.044C796.454 265.291 797.243 265.854 797.926 266.925C798.707 268.151 798.66 269.995 798.373 271.363C797.854 273.842 796.583 277.017 794.413 278.44C793.562 278.432 792.362 278.333 791.63 277.893C790.295 277.092 789.642 276.116 789.323 274.588C788.67 271.46 790.487 267.751 792.221 265.272Z"/>
	<path fill="#0243B7" transform="scale(0.234043 0.235)" d="M615.429 265.272L615.786 265.192C617.971 264.718 619.153 264.716 621.038 265.922C622.035 267.581 622.437 269.025 622.103 270.968C621.573 274.041 620.168 276.788 617.641 278.529C616.77 278.418 615.683 278.325 614.92 277.875C613.625 277.112 612.825 276.072 612.492 274.586C611.772 271.377 613.751 267.836 615.429 265.272Z"/>
	<path fill="#0243B7" transform="scale(0.234043 0.235)" d="M1227.27 265.273C1228.71 264.992 1230.15 264.991 1231.61 264.961C1232.71 265.413 1233.45 265.872 1234.07 266.919C1234.96 268.431 1235.08 270.232 1234.66 271.91C1234.01 274.429 1232.98 276.655 1230.66 277.989C1230.03 278.531 1228.46 278.44 1227.63 278.502C1226.24 277.604 1225.72 277.089 1225.31 275.399C1224.48 272.004 1225.42 268.143 1227.27 265.273Z"/>
	<path fill="#98B23D" transform="scale(0.234043 0.235)" d="M180.15 108.385C179.161 107.374 178.887 106.62 178.59 105.248L179.286 104.428C181.609 103.92 183.47 104.562 185.689 105.2C189.566 107.461 195.096 112.12 196.226 116.577C197.763 122.639 194.532 125.365 192.584 130.471C192.676 129.831 192.745 129.193 192.747 128.546C192.755 126.256 190.123 124.319 188.601 122.834L187.558 120.935L188.161 119.573L187.652 118.606L187.458 119.15L186.626 119.362L184.367 117.408C182.857 115.372 181.472 113.265 180.084 111.146L180.15 108.385ZM180.15 108.385L180.084 111.146C181.472 113.265 182.857 115.372 184.367 117.408L186.626 119.362L187.458 119.15L187.652 118.606C187.178 116.563 186.786 114.217 185.856 112.332C184.665 109.916 182.508 109.224 180.15 108.385Z"/>
	<path fill="#0243B7" transform="scale(0.234043 0.235)" d="M813.891 269.774C817.809 269.692 820.566 278.349 824.125 280.667C826.659 282.318 831.931 282.371 834.843 281.669C839.085 280.646 840.055 276.14 842.063 272.85C842.955 271.388 844.027 269.622 845.788 269.202C847.277 269.642 847.447 269.683 848.192 271.048C848.058 273.312 847.975 273.709 846.686 275.562C846.734 275.779 846.757 275.853 846.771 276.095C846.87 277.802 845.02 280.237 843.939 281.539C840.951 285.136 835.831 286.755 831.313 287.141C825.881 287.605 820.529 285.469 816.432 281.941C814.469 280.251 812.685 277.741 812.537 275.091C812.432 273.215 812.6 271.225 813.891 269.774Z"/>
	<path fill="#0243B7" transform="scale(0.234043 0.235)" d="M619.233 73.6317C621.031 73.2776 622.595 73.3979 624.309 74.0316C625.981 74.65 627.436 75.671 628.166 77.3487C629.356 80.0864 628.585 83.5286 627.488 86.1794C625.892 90.0343 622.849 94.3626 618.91 96.0134L617.894 96.7403L616.499 96.1688C614.11 93.0748 611.263 86.7155 611.65 82.7768C612.027 78.935 616.454 75.8832 619.233 73.6317Z"/>
	<path fill="#0243B7" transform="scale(0.234043 0.235)" d="M607.567 293.566C609.283 293.112 610.375 292.94 612.091 293.457C616.813 298.813 609.511 313.03 608.99 319.751C608.545 325.494 609.528 331.614 609.572 337.4C609.589 339.606 609.608 339.953 608.066 341.493C607.482 341.568 606.852 341.662 606.263 341.613C604.836 341.495 603.841 341.101 602.977 339.931C598.65 334.072 606.193 301.991 607.567 293.566Z"/>
	<path fill="#0243B7" transform="scale(0.234043 0.235)" d="M1220.02 293.569C1221.69 293.33 1223.33 292.917 1224.86 293.843C1229.23 298.984 1221.81 314.89 1221.3 321.411C1220.86 327.028 1222.02 332.546 1221.98 338.101C1221.96 340.115 1221.82 340.149 1220.43 341.507C1218.49 341.851 1217.24 341.387 1215.67 340.4C1210.93 332.892 1218.31 303.386 1220.02 293.569Z"/>
	<path fill="#0243B7" transform="scale(0.234043 0.235)" d="M783.731 293.568C784.649 293.399 785.667 293.163 786.601 293.173C788.088 293.19 788.651 293.92 789.548 294.947C791.39 301.409 786.437 314.149 785.283 321.265C784.367 326.92 787.268 335.835 785.675 340.388C785.4 341.175 784.252 341.452 783.512 341.802C783.431 341.814 783.351 341.833 783.269 341.84C781.681 341.958 780.539 341.455 779.355 340.468C774.855 332.873 782.191 303.214 783.731 293.568Z"/>
	<path fill="#0243B7" transform="scale(0.234043 0.235)" d="M528.385 289.708C528.439 289.705 528.493 289.702 528.546 289.7C529.924 289.659 531.289 289.523 532.59 290.086C535.558 291.37 538.062 294.48 539.263 297.423C540.332 300.04 540.688 303.491 539.475 306.111C538.862 307.436 538.411 308.246 537.046 308.706C533.395 305.924 534.605 299.432 530.133 296.668C527.975 297.068 526.313 298.107 524.723 299.576C518.798 305.048 511.575 319.105 511.364 327.52C511.32 329.28 511.742 331.173 513.001 332.462C514.669 334.171 516.981 334.728 519.3 334.677C524.174 334.57 531.569 332.541 535 328.937C536.507 328.154 538.378 326.937 540.085 326.821C541.034 326.756 541.195 327.121 541.888 327.732L541.907 329.289C539.443 333.986 534.757 337.065 530.1 339.311C524.729 341.901 518.31 342.853 512.565 340.801C509.712 339.781 507.413 337.83 506.143 335.051C503.311 328.859 505.178 320.258 507.469 314.201C511.171 304.414 518.71 294.067 528.385 289.708Z"/>
	<defs>
		<linearGradient id="gradient_0" gradientUnits="userSpaceOnUse" x1="1075.4705" y1="308.20914" x2="1106.0883" y2="327.52814">
			<stop offset="0" stop-color="#0033AD"/>
			<stop offset="1" stop-color="#0251BE"/>
		</linearGradient>
	</defs>
	<path fill="url(#gradient_0)" transform="scale(0.234043 0.235)" d="M1092.48 289.71C1094.25 289.412 1095.84 289.567 1097.53 290.217C1100.08 291.199 1102 293.494 1103.06 295.962C1104.57 299.484 1105.11 303.695 1103.68 307.308C1102.37 308.294 1102.09 308.855 1100.42 308.71C1098.03 306.371 1098.47 301.295 1096.61 298.394C1095.81 297.148 1095.2 297.005 1093.85 296.683C1092.24 297.061 1091.08 297.805 1089.85 298.873C1083.61 304.289 1076.61 317.31 1076.12 325.736C1075.99 327.977 1076.4 330.354 1077.98 332.051C1079.64 333.834 1082.26 334.455 1084.61 334.486C1089.3 334.548 1095.44 332.881 1098.87 329.582C1101.34 328.507 1104.47 326.566 1107.13 326.822C1107.29 327.259 1107.63 327.797 1107.51 328.253C1106.52 331.876 1101.36 335.66 1098.28 337.483C1092.73 340.774 1085.5 343.487 1079 341.745Q1078.39 341.583 1077.8 341.362Q1077.21 341.141 1076.65 340.863Q1076.09 340.585 1075.55 340.252Q1075.02 339.92 1074.52 339.536Q1074.02 339.152 1073.56 338.721Q1073.11 338.29 1072.69 337.816Q1072.28 337.341 1071.92 336.828Q1071.55 336.315 1071.24 335.769C1068.25 330.537 1069.26 323.609 1070.77 318.075C1074.05 306.098 1081.73 295.853 1092.48 289.71Z"/>
	<path fill="#1198C2" transform="scale(0.234043 0.235)" d="M64.78 221.094C66.4365 221.261 68.0189 221.781 69.3567 222.81C70.7114 223.853 70.934 224.566 71.2144 226.157C69.6184 229.058 66.8028 231.648 64.2794 233.749C59.99 237.32 54.7841 239.617 50.3446 243.003C41.4126 249.816 33.3664 258.436 23.6274 264.083C21.36 263.126 19.0205 261.679 17.8377 259.44C17.0354 257.92 17.0013 256.306 17.5346 254.691C18.6415 251.338 21.3783 248.615 24.0178 246.403C28.1765 242.918 33.1632 240.387 37.7292 237.482C46.6965 231.775 55.1776 225.772 64.78 221.094Z"/>
	<path fill="#DE1686" transform="scale(0.234043 0.235)" d="M153.4 323.5C154.965 323.459 156.223 323.528 157.723 323.996C159.65 326.791 160.431 330.87 161.045 334.163C162.196 340.342 161.925 346.725 162.708 352.963C163.824 361.861 166.929 371.522 166.586 380.467C166.461 383.711 164.267 385.605 162.074 387.668C160.843 387.901 159.102 388.039 157.957 387.476C155.318 386.178 153.833 382.727 152.969 380.082C150.818 373.497 149.334 341.024 150.179 333.616C150.601 329.918 151.714 326.794 153.4 323.5Z"/>
	<path fill="#9964A2" transform="scale(0.234043 0.235)" d="M373.728 136.847C375.048 136.739 376.408 136.689 377.683 137.112C379.223 137.623 380.577 139.152 381.268 140.582C382.102 142.309 381.934 143.89 381.278 145.649C377.813 154.941 345.027 173.704 335.067 178.179C334.366 178.459 333.549 178.574 332.794 178.566C330.044 178.539 327.801 175.508 326.049 173.675C332.74 165.849 341.924 160.806 350.028 154.687C357.919 148.729 365.324 142.102 373.728 136.847Z"/>
	<path fill="#FED906" transform="scale(0.234043 0.235)" d="M287.33 297.671C289.475 297.576 291.532 297.906 293.556 298.601C299.649 300.693 305.43 304.319 311.336 306.961C320.514 311.067 334.729 313.9 342.086 321.068C343.007 321.966 343.231 322.744 343.277 323.999C343.382 326.883 341.066 328.784 339.236 330.729C338.072 331.458 336.832 331.824 335.465 331.948C330.831 332.367 294.109 312.732 288.636 308.167C286.708 306.56 285.042 304.895 284.846 302.24C284.713 300.45 286.251 298.949 287.33 297.671Z"/>
	<path fill="#9CC04D" transform="scale(0.234043 0.235)" d="M60.4983 69.5402C63.0628 69.2197 65.3415 69.2565 67.8174 70.0462C73.4616 71.8464 103.162 87.301 108.488 90.9609C110.393 92.27 114.459 95.0042 114.866 97.3691C114.88 97.4504 114.89 97.5323 114.904 97.6136C115.295 99.8931 114.121 101.785 113.122 103.753L112.306 103.647C108.934 102.923 105.047 102.375 101.874 101.041C97.2398 99.0921 93.1599 95.8405 88.481 93.967C79.1842 90.2445 63.4954 87.9959 57.1628 79.6347C56.2036 78.3684 55.5692 76.8407 55.8137 75.2286C56.2145 72.5868 58.5403 71.0581 60.4983 69.5402Z"/>
	<path fill="#0243B7" transform="scale(0.234043 0.235)" d="M809.509 292.925C810.269 292.788 811.039 292.652 811.808 292.583C813.558 292.426 814.578 292.554 815.893 293.66C816.952 303.369 810.488 313.406 809.761 323.178C809.436 327.544 812.34 330.461 812.441 334.448C824.885 329.597 831.742 316.671 836.667 305.018C837.687 302.604 838.793 298.57 840.512 296.623C841.599 295.391 842.468 295.343 843.989 295.323C844.038 295.407 844.088 295.49 844.135 295.575C844.903 296.971 844.842 298.765 844.754 300.316C844.46 305.495 843.012 310.715 842.295 315.857C841.836 319.15 842.216 322.458 841.269 325.682C841.305 325.726 841.343 325.769 841.378 325.814C842.622 327.438 846.646 338.125 846.322 340.148C846.159 341.159 845.808 341.248 845.021 341.843C843.627 341.964 842.542 341.59 841.289 341.036C834.186 337.897 837.872 326.028 835.321 319.666L835.228 319.44C835.126 321.173 832.837 323.897 831.848 325.361C828.465 330.368 821.712 339.164 815.4 340.258C812.79 340.71 809.65 340.144 807.51 338.532C796.871 330.512 810.875 302.104 809.566 293.261C809.549 293.149 809.528 293.037 809.509 292.925Z"/>
	<path fill="#0243B7" transform="scale(0.234043 0.235)" d="M606.401 118.004C607.579 117.872 608.992 117.986 610.124 118.318C612.024 118.875 613.587 120.119 614.47 121.89C615.19 123.335 615.21 124.878 615.001 126.44C614.388 131.04 612.838 135.74 611.724 140.248C609.159 150.621 606.726 161.209 606.055 171.905C605.695 177.634 609.743 186.372 607.631 191.571C606.855 193.48 605.314 193.831 603.583 194.534C603.306 194.827 602.972 195.119 602.574 195.23C600.919 195.694 600.073 195.47 598.644 194.711C597.166 192.815 596.427 190.97 595.959 188.627C593.649 177.048 600.317 127.099 606.401 118.004Z"/>
	<path fill="#0243B7" transform="scale(0.234043 0.235)" d="M755.169 310.553C759.089 306.695 756.523 296.324 760.17 291.386C761.005 290.255 761.404 290.099 762.772 289.918C764.025 290.558 764.748 290.944 765.331 292.269C766.023 302.697 759.988 313.2 761.682 323.772C762.33 327.815 767.286 337.532 765.951 340.861L763.469 341.463C762.232 341.527 760.791 341.211 759.728 340.56C754.236 337.195 755.774 323.52 754.599 317.873C747.419 320.005 737.803 319.829 730.262 320.492C730.775 321.672 730.022 334.506 729.903 336.657C729.795 338.612 728.901 339.79 727.492 341.06C725.773 341.589 725.51 341.718 723.821 341.087C722.947 340.117 722.597 339.227 722.461 337.925C721.769 331.307 725.161 295.354 728.7 290.995C729.596 290.961 730.504 291.023 731.401 291.052C732.216 291.808 732.634 292.123 732.89 293.267C733.9 297.776 732.673 309.248 730.292 313.034C738.461 313.145 747.053 311.516 755.169 310.553Z"/>
	<path fill="#0243B7" transform="scale(0.234043 0.235)" d="M900.653 294.854C902.05 294.479 903.056 294.34 904.493 294.545C910.555 299.637 902.529 320.078 903.891 327.72C909.768 324.677 914.349 303.232 923.927 297.566C925.921 296.387 928.12 295.989 930.37 296.626C933.41 297.487 935.592 299.901 937.037 302.6C939.605 307.397 942.697 324.206 941.156 329.417Q946.098 329.345 951.038 329.486L951.97 330.735C951.867 331.465 951.881 332.188 951.447 332.794C949.596 335.381 947.915 336.816 944.715 337.339C942.877 337.68 940.625 337.765 939.022 336.642C934.036 333.153 933.642 318.975 932.665 313.249C932.061 309.711 931.617 305.781 928.541 303.608C917.911 304.647 910.435 337.183 901.389 339.906C899.644 340.432 898.785 339.855 897.286 339.079C895.687 335.383 899.19 300.197 900.653 294.854Z"/>
	<path fill="#1198C2" transform="scale(0.234043 0.235)" d="M76.4439 236.012C79.7737 236.943 83.3599 239.098 86.7334 237.759L87.992 238.312C86.7089 241.27 84.7093 243.71 82.5882 246.105C75.2653 254.373 66.8156 261.542 58.9811 269.304C53.1569 275.074 47.9129 282.137 41.1856 286.854C39.9851 287.696 39.0135 288.371 37.4592 288.036C35.3344 287.578 32.4466 285.291 31.2923 283.459Q31.1116 283.176 30.9607 282.875Q30.8098 282.575 30.6903 282.26Q30.5707 281.946 30.4837 281.621Q30.3967 281.297 30.3432 280.965Q30.2897 280.633 30.2702 280.297Q30.2507 279.961 30.2654 279.625Q30.2802 279.289 30.329 278.957Q30.3778 278.624 30.4602 278.298C32.102 271.864 55.812 254.537 61.8357 249.218C66.8145 244.822 70.7351 239.567 76.4439 236.012Z"/>
	<path fill="#DE1686" transform="scale(0.234043 0.235)" d="M177.368 315.189C180.056 320.535 182.239 326.756 184.007 332.485C186.206 339.61 187.118 347.139 188.97 354.364C190.713 361.16 193.49 367.791 194.86 374.654C195.297 376.842 195.704 379.141 195.011 381.316C194.19 383.898 191.988 386.369 189.558 387.581C188.644 388.037 187.625 388.347 186.647 388.63C181.602 385.302 179.472 381.061 178.255 375.183C176.906 368.667 175.737 361.907 174.955 355.3C174.536 351.764 174.587 348.06 173.928 344.573C173.004 339.685 170.235 335.204 169.794 330.185C169.594 327.914 169.914 325.579 171.186 323.639C173.134 320.666 176.937 319.013 177.368 315.189Z"/>
	<path fill="#1198C2" transform="scale(0.234043 0.235)" d="M113.646 240.475C113.852 239.832 114.591 239.219 115.048 238.729C116.649 238.097 117.89 237.615 119.648 237.779C120.684 237.875 120.956 238.601 121.592 239.377C117.965 244.462 114.26 250.528 109.489 254.578C95.9529 270.533 83.9832 295.64 66.1377 305.798C64.2372 304.665 62.3221 303.525 60.7098 301.993C59.6795 301.014 58.5028 299.525 58.5399 298.026C58.6768 292.5 78.1677 272.323 82.3779 266.771C85.2737 262.952 87.8785 257.389 91.2667 254.156C93.6923 251.841 97.526 251.489 100.097 249.056C100.14 249.015 100.182 248.974 100.225 248.932L100.976 248.941L101.613 249.948L102.242 250.048C102.416 251.934 102.479 251.998 103.806 253.356C105.866 253.634 105.897 253.592 107.639 252.446C109.328 248.388 111.648 244.402 113.646 240.475Z"/>
	<path fill="#0243B7" transform="scale(0.234043 0.235)" d="M851.149 71.0601C852.617 70.8888 853.848 70.781 855.172 71.5442C856.805 72.4849 857.591 73.7524 858.025 75.5611C859.175 80.3605 848.671 119.429 847.197 127.499C845.344 137.653 843.501 149.213 843.543 159.518C843.571 166.229 846.519 189.267 843.628 193.768C842.35 195.759 840.831 196.247 838.662 196.742C837.657 196.913 836.92 196.503 836.031 196.103C832.616 192.259 832.239 185.525 831.974 180.591C830.815 158.995 838.558 96.4195 846.92 77.272C847.967 74.8753 849.413 72.9955 851.149 71.0601Z"/>
	<path fill="#0243B7" transform="scale(0.234043 0.235)" d="M634.516 290.353C635.528 290.444 636.526 290.877 637.485 291.203C638.553 292.202 639.006 293.143 639.229 294.594C639.993 299.571 637.492 323.959 634.815 327.631C642.995 322.254 647.58 307.166 654.48 299.38C656.816 296.742 659.816 294.146 663.487 293.929C665.135 294.426 666.051 295.293 666.942 296.764C668.083 298.647 668.721 300.92 669.091 303.076C669.539 305.679 671.195 325.509 670.88 326.795C676.901 321.874 681.202 308.166 686.431 301.065C688.437 298.341 691.476 294.53 695.073 294.07C696.516 293.885 697.811 294.422 698.923 295.321C704.442 299.788 706.407 321.258 707.233 328.689C708.893 329.307 710.933 330.178 712.205 331.451C713.224 332.471 713.482 333.526 713.518 334.923C712.905 336.091 712.708 336.629 711.548 337.34C709.14 338.816 706.294 337.822 703.741 337.233C697.362 327.209 699.772 307.739 694.105 301.169C694.062 301.407 694.009 301.654 693.919 301.879C692.346 305.811 687.909 310.475 685.541 314.172C681.696 320.174 678.914 326.965 674.767 332.762C673.777 334.146 672.364 336.012 670.737 336.626C669.472 337.103 669.003 336.752 667.859 336.224C662.965 330.67 663.817 313.44 662.566 305.837C662.336 304.442 662.177 303.314 661.02 302.471C653.499 306.842 644.579 329.837 637.437 337.065C635.938 338.582 634.487 339.704 632.263 339.706C631.577 339.276 630.945 339.008 630.532 338.286C626.413 331.099 632.105 299.049 634.516 290.353Z"/>
	<path fill="#0243B7" transform="scale(0.234043 0.235)" d="M1123.62 290.996C1124.09 290.902 1124.55 290.807 1125.02 290.758C1126.04 290.65 1127.06 290.673 1127.86 291.326C1133.64 296.021 1126.76 317.796 1127.42 325.333L1128.08 325.797C1130.56 323.131 1132.04 319.239 1133.75 316.043C1137.38 309.225 1143.74 297.82 1150.89 294.39C1151.95 293.879 1153.3 293.572 1154.44 293.999C1163.61 297.413 1159.02 318.015 1162.37 325.132L1163.25 325.147C1167.06 321.909 1172.52 306.712 1177.17 300.77C1179.57 297.701 1183.06 293.483 1187.16 292.983C1188.68 293.491 1189.28 293.628 1190.31 294.924C1194.9 300.695 1194.72 313.22 1196.13 320.422C1196.62 322.927 1198.21 325.818 1197.9 328.308C1199.5 328.945 1201.34 329.734 1202.63 330.89C1203.93 332.06 1204.31 333.438 1204.34 335.124C1203.89 335.946 1203.61 336.746 1202.81 337.259C1200.26 338.887 1197.5 338.083 1194.75 337.498C1187.46 329.258 1189.66 308.262 1185.16 303.889C1177.67 303.743 1169.95 330.331 1163.11 335.211C1162.1 335.934 1160.86 336.412 1159.6 336.162C1151.71 334.593 1156.22 308.332 1151.33 301.777C1151.26 301.675 1151.18 301.575 1151.1 301.475C1149.62 305.042 1145.39 309.431 1143.17 312.771C1139.23 318.681 1135.67 324.836 1132.04 330.942C1130.71 333.19 1128.36 338.442 1125.92 339.428C1124.23 340.109 1123.22 339.715 1121.7 339.051C1114.9 331.408 1124.16 302.193 1123.65 291.373C1123.64 291.247 1123.63 291.122 1123.62 290.996Z"/>
	<path fill="#0243B7" transform="scale(0.234043 0.235)" d="M474.343 291.638C478.839 290.924 483.028 291.223 487.021 293.573C490.883 295.846 493.2 299.707 494.265 303.981C496.114 311.407 494.285 319.26 490.382 325.717C486.272 332.516 479.606 338.77 471.755 340.739C468.984 341.941 464.088 341.857 461.257 340.83C458.439 339.808 456.534 337.318 455.361 334.649C452.16 327.362 453.039 318.828 455.869 311.584C459.49 302.315 465.252 295.652 474.343 291.638ZM477.329 298.713C472.658 299.49 469.373 301.577 466.588 305.439C461.755 312.141 461.558 319.314 459.199 326.814L459.427 327.075C461.751 329.777 462.702 334.173 466.805 334.525C467.798 334.611 468.867 334.402 469.842 334.222C475.824 333.004 480.361 328.946 483.666 323.935C486.857 319.097 489.06 312.574 487.872 306.744C487.31 303.985 485.683 301.707 483.362 300.165C481.493 298.923 479.492 298.823 477.329 298.713Z"/>
	<path fill="#0243B7" transform="scale(0.234043 0.235)" d="M1039.05 291.64C1043.64 290.853 1047.88 291.31 1051.95 293.687C1055.66 295.858 1058 299.656 1059.06 303.754C1061 311.245 1058.83 319.467 1054.94 325.967C1051.14 332.304 1044.58 338.875 1037.22 340.707C1034.32 341.905 1029.15 342.075 1026.2 340.981C1023.49 339.975 1021.54 337.843 1020.32 335.26C1016.99 328.165 1018.16 318.662 1020.75 311.529C1024.26 301.842 1029.86 295.928 1039.05 291.64ZM1038.26 298.713C1031.45 303.779 1026.39 311.748 1025.18 320.221C1024.64 324.02 1024.87 328.729 1027.25 331.924C1028.26 333.281 1029.75 334.356 1031.45 334.527C1032.69 334.653 1036.06 334.234 1037.04 333.34C1037.11 333.281 1037.17 333.217 1037.23 333.155C1042.62 331.701 1046.63 327.566 1049.34 322.806C1052.18 317.821 1054.04 311.429 1052.44 305.736C1051.71 303.139 1050.14 300.842 1047.73 299.554C1044.76 297.967 1041.47 297.99 1038.26 298.713Z"/>
	<path fill="#0243B7" transform="scale(0.234043 0.235)" d="M965.743 289.067C966.613 289.1 967.503 289.28 968.366 289.402C968.952 289.902 969.509 290.458 969.786 291.194C971.8 296.54 969.267 311.519 966.852 316.714C974.663 311.43 976.907 296.798 992.549 290.774C995.075 289.802 997.841 289.363 1000.38 290.547C1003.44 291.971 1005.59 295.376 1006.73 298.441C1008.84 304.084 1006.67 311.309 1004.29 316.514C1000.27 325.302 991.922 335.54 982.614 338.964C981.927 339.997 980.177 340.646 979.037 340.954C973.588 342.426 969.824 336.822 965.613 334.345C965.796 334.818 965.964 335.311 966.048 335.813C966.73 339.864 961.594 367.551 959.421 370.733C957.41 370.999 956.954 371.042 955.097 370.272C953.684 368.511 953.499 366.805 953.681 364.622C954.21 358.245 956.911 351.955 958.019 345.632C960.581 331.017 962.184 315.394 962.719 300.578C962.86 296.671 962.712 291.874 965.743 289.067ZM992.646 297.427C985.51 302.742 970.775 317.067 969.64 325.944C969.434 327.558 969.657 329.013 970.703 330.3C971.768 331.611 973.381 332.411 974.849 333.193C980.296 333.406 984.576 330.269 988.467 326.689C994.549 321.094 999.934 312.807 1000.26 304.307C1000.34 302.329 1000.02 300.195 998.587 298.714C997.61 297.702 996.351 297.204 994.958 297.215C994.188 297.22 993.406 297.308 992.646 297.427Z"/>
	<path fill="#0243B7" transform="scale(0.234043 0.235)" d="M1245.69 289.067C1246.8 289.066 1248.38 288.939 1249.35 289.504C1250.33 290.076 1250.71 291.136 1250.99 292.195C1252.39 297.434 1250.95 310.502 1248.24 315.03C1257.51 309.042 1259.73 295.908 1272.01 290.813C1275.2 289.491 1278.48 289.465 1281.67 290.827C1284.49 292.036 1286.82 294.648 1287.94 297.491C1290.06 302.878 1287.69 311.046 1285.46 316.048C1281.52 324.892 1273.46 335.166 1264.16 338.722C1262.79 339.954 1260.55 340.859 1258.74 341.269C1254.37 342.261 1250.57 336.983 1247.19 334.906C1247.32 335.278 1247.45 335.698 1247.47 336.094C1247.55 338.23 1241.9 368.848 1241.71 369.216C1241.51 369.593 1240.99 370.076 1240.71 370.415C1239.11 370.75 1237.94 370.559 1236.36 370.196C1235.78 369.588 1235.16 369.121 1234.95 368.289C1233.72 363.576 1237.8 351.847 1238.64 346.347C1240.05 337.053 1241.71 327.666 1242.52 318.304C1243.22 310.244 1243.09 301.963 1244.14 293.96C1244.38 292.145 1244.77 290.671 1245.69 289.067ZM1272.57 298.07C1266.11 303.814 1251.45 318.897 1250.78 327.597C1250.69 328.788 1251.14 329.725 1251.73 330.722C1253.34 332.088 1256.1 333.638 1258.27 333.645C1265.79 331.779 1272.88 323.911 1276.73 317.487C1279.12 313.485 1282.79 306.144 1281.44 301.322C1281.04 299.912 1280.15 298.949 1278.86 298.29C1276.67 297.175 1274.85 297.594 1272.57 298.07Z"/>
	<path fill="#0243B7" transform="scale(0.234043 0.235)" d="M579.78 261.414C581.497 261.252 583.315 261.035 585.028 261.304C587.705 261.723 590.542 263.043 592.092 265.338C593.916 268.04 593.924 271.735 593.26 274.818C591.774 281.729 585.695 289.681 579.746 293.515C579.846 293.569 579.947 293.622 580.047 293.677C585.193 296.518 588.151 299.442 589.759 305.188C591.957 313.039 590.069 322.941 586.078 329.925C583.31 334.769 578.8 339.529 573.291 341.044C573.029 341.26 572.759 341.454 572.454 341.604C569.97 342.825 565.4 342.331 562.863 341.447C559.22 340.176 556.652 337.376 555.021 333.952C549.122 321.564 553.361 300.483 557.81 288.02C561.908 276.538 568.525 266.757 579.78 261.414ZM574.138 299.355C570.266 303.106 564.123 306.979 559.304 309.424L559.335 309.63C560.537 317.847 556.887 327.783 564.763 333.64C565.207 333.97 565.655 334.279 566.13 334.56C570.42 334.652 573.705 334.221 576.927 331.154C581.585 326.721 583.167 320.288 583.258 314.039C583.319 309.822 582.712 305.345 579.662 302.184C578.08 300.545 576.484 299.459 574.138 299.355ZM578.839 268.487C570.897 275.153 566.822 283.477 563.322 293.018C562.227 296.004 561.379 299.155 559.631 301.838C561.529 301.104 564.825 300.217 565.752 298.216C565.774 298.169 565.784 298.117 565.8 298.068C573.273 293.624 585.112 282.501 587.436 273.893C587.74 272.768 587.685 271.757 587.482 270.624C586.389 269.209 585.686 268.41 583.763 268.168C582.119 267.96 580.45 268.148 578.839 268.487Z"/>
	<path fill="#0243B7" transform="scale(0.234043 0.235)" d="M904.589 112.861C909.367 112.38 913.604 111.856 917.911 114.373C920.574 115.929 922.452 118.377 923.222 121.363C924.24 125.309 923.215 129.557 921.547 133.174C912.899 151.931 883.856 161.985 879.631 169.659C878.971 170.856 879.47 171.871 879.848 173.099C880.839 176.313 883.156 179.737 886.231 181.279C888.801 182.567 892.355 182.806 895.185 182.782C913.546 182.632 920.373 166.479 929.258 163.939C929.75 163.799 930.107 164.146 930.544 164.381C930.829 166.213 930.713 166.469 929.934 168.168C930.348 169.689 930.118 170.738 929.463 172.161C925.187 181.466 912.42 189.948 903.028 193.344C896.122 195.841 888.029 196.759 881.205 193.509C875.896 190.98 872.198 186.3 870.264 180.812C865.953 168.575 869.245 154.07 874.675 142.681C881.048 129.316 890.287 117.933 904.589 112.861ZM905.81 123.15Q904.769 123.721 903.757 124.342Q902.744 124.963 901.763 125.631Q900.781 126.3 899.833 127.014Q898.884 127.729 897.971 128.488Q897.058 129.248 896.183 130.05Q895.307 130.853 894.471 131.696Q893.634 132.539 892.839 133.422Q892.044 134.304 891.293 135.224Q890.541 136.144 889.834 137.098Q889.127 138.053 888.467 139.04Q887.807 140.028 887.194 141.046Q886.582 142.064 886.019 143.11Q885.456 144.156 884.944 145.228Q884.432 146.3 883.972 147.395Q883.512 148.491 883.105 149.607Q882.697 150.723 882.344 151.857C881.934 153.212 881.429 154.424 882.047 155.742C883.167 155.627 883.94 154.742 884.735 154.02C893.131 150.775 908.201 137.178 911.812 128.991C912.517 127.393 912.478 126.472 912.064 124.83C910.532 123.494 908.968 122.869 906.908 123.017C906.539 123.044 906.175 123.095 905.81 123.15Z"/>
	<path fill="#0243B7" transform="scale(0.234043 0.235)" d="M1295.12 115.434C1296.6 115.225 1297.59 115.207 1299.01 115.697C1300.73 117.208 1301.3 118.783 1301.74 120.952C1303.02 127.185 1301.84 134.751 1301.43 141.105C1299.86 165.562 1296.76 202.281 1283.08 222.852C1278.92 229.107 1273.21 233.76 1265.72 235.221C1256.38 237.045 1245.76 233.943 1238 228.71C1233.34 225.57 1228.17 221.029 1227.12 215.25C1226.74 213.174 1226.98 211.623 1228.18 209.903C1232.5 209.306 1237.45 217.139 1241.46 219.428C1247.69 222.977 1257.38 225.8 1264.51 223.819C1269.97 222.303 1273.66 217.919 1276.33 213.144C1280.02 206.529 1288.47 182.127 1286.23 174.923C1286.19 174.813 1286.15 174.704 1286.12 174.594C1286.34 174.194 1286.51 173.787 1286.66 173.354C1287.65 170.479 1287.83 168.12 1286.47 165.307C1286.42 165.464 1286.39 165.6 1286.33 165.747C1283.06 173.069 1264.97 183.353 1257.37 186.222C1253.09 187.839 1248.33 188.726 1244.02 186.711C1240.48 185.056 1238.19 181.895 1236.88 178.291C1232.82 167.139 1238.75 137.116 1243.64 126.888C1245.3 123.432 1247.95 120.168 1251.62 118.853C1253.5 119.001 1253.8 118.984 1255.2 120.252C1255.82 122.12 1256.59 124.008 1256.39 126.006C1256.37 126.124 1256.36 126.242 1256.34 126.359C1257.11 129.718 1251.56 139.376 1250.12 142.996C1246.77 151.418 1243.65 162.992 1247.63 171.659C1248.22 172.94 1249.26 173.865 1250.6 174.318C1254.82 175.749 1260.5 173.043 1264.19 171.176C1269.75 168.364 1284.7 158.859 1286.61 153.055C1290.89 147.584 1289.76 134.826 1290.21 128.109C1290.55 122.99 1291.12 118.946 1295.12 115.434Z"/>
	<path fill="#0243B7" transform="scale(0.234043 0.235)" d="M1191.86 114.148C1193.13 113.984 1194.49 113.908 1195.77 113.988C1200.03 114.256 1204.17 119.565 1207.6 121.961C1209.41 123.22 1211.36 123.64 1212.86 125.347C1212.9 125.442 1212.94 125.537 1212.98 125.631C1215.44 131.381 1205.34 160.533 1210.1 175.024C1211.4 178.989 1214.36 182.338 1216.4 185.943C1217.25 187.463 1217.43 188.779 1216.97 190.449C1216.21 191.59 1215.46 192.402 1214.24 193.056C1212.17 194.166 1209.57 194.989 1207.24 194.243C1197.19 191.013 1199.92 170.889 1197.02 165.153C1196.99 165.096 1196.96 165.04 1196.93 164.984C1196.92 165.3 1196.9 165.643 1196.79 165.942C1195.64 169.067 1191.21 174.002 1188.3 175.566C1188.26 175.818 1188.24 175.978 1188.11 176.204C1185.27 181.386 1171.19 189.792 1165.64 191.566C1161.99 192.732 1157.67 193.328 1154.14 191.432C1150.59 189.517 1148.66 185.617 1147.63 181.87C1144.32 169.83 1149.8 156.731 1155.67 146.324C1163.91 131.719 1175.23 118.775 1191.86 114.148ZM1191.12 125.08C1177.91 130.328 1166.79 146.841 1161.31 159.525C1159.16 164.488 1157.01 171.069 1159.08 176.416C1159.79 178.272 1160.85 179.671 1162.46 180.862C1163.66 180.883 1164.02 180.891 1165.11 180.272C1176.61 177.037 1188.74 162.288 1194.47 152.099C1197.67 146.415 1201.72 136.811 1199.82 130.169C1199.2 127.981 1197.54 126.535 1195.58 125.515C1194.11 124.749 1192.71 124.843 1191.12 125.08Z"/>
	<path fill="#0243B7" transform="scale(0.234043 0.235)" d="M1135.21 85.8515C1136.66 85.7093 1137.49 85.8584 1138.82 86.4398C1139.91 87.5515 1140.67 88.5803 1141.06 90.105C1145.74 108.134 1118 170.684 1108.54 186.705C1106.96 189.372 1104.91 192.501 1101.74 193.302C1091.77 191.384 1081.57 158.021 1078.3 148.643C1076.79 144.316 1075.38 137.856 1072.24 134.485C1072.19 134.436 1072.14 134.389 1072.1 134.341C1072.12 134.699 1072.11 135.066 1072.06 135.42C1071.54 138.515 1043.53 185.204 1039.68 191.021C1038.31 193.093 1036.6 195.744 1034.54 197.181C1033.59 197.843 1032.43 198.162 1031.3 197.912C1029.27 197.464 1027.98 195.676 1027.04 193.935C1019.99 180.888 1013.54 140.954 1010.55 125.427C1009.62 120.601 1008.89 111.33 1006.27 107.374C1006.2 107.263 1006.12 107.156 1006.05 107.046C1007.31 103.868 1004.75 99.004 1005.31 95.4017C1005.54 93.9732 1006.14 92.6434 1007.36 91.8015C1009.08 90.6137 1010.55 90.6108 1012.46 90.9376C1014.28 92.2199 1015.13 93.7652 1015.96 95.7622C1020.1 105.734 1024.15 135.486 1026.4 147.196C1028.42 157.674 1031.57 168.178 1033.12 178.713C1033.25 179.595 1033.08 180.291 1032.75 181.108C1038.82 175.972 1057.64 140.492 1062.36 131.585C1065.04 126.528 1067.95 119.078 1071.98 115.029C1072.78 114.225 1072.98 114.277 1074.09 114.255C1075.42 115.198 1076.27 116.262 1077.1 117.637C1083.85 128.857 1087.99 144.422 1092.77 156.751C1095.2 163.013 1098.68 169.516 1100.47 175.926C1100.65 176.577 1100.52 177.299 1100.37 177.942C1103.65 175.664 1106.18 168.75 1107.99 165.131C1116.23 148.66 1123.35 132.3 1127.38 114.237C1129.24 105.935 1130.01 97.2655 1132.06 89.0562C1132.51 87.252 1133.77 86.7817 1135.21 85.8515Z"/>
	<path fill="#0243B7" transform="scale(0.234043 0.235)" d="M563.912 85.8513C565.123 85.8524 566.062 86.3061 567.102 86.8745C569.156 87.9979 571.969 89.8626 572.656 92.1988C572.795 92.4544 572.81 92.4661 572.914 92.7045C573.425 93.8705 573.355 94.9169 573.243 96.149C571.187 118.773 566.214 141.336 565.369 164.123C565.279 166.564 565.059 169.241 565.388 171.656C566.192 177.559 569.542 184.075 567.063 189.986C566.393 191.582 564.784 192.809 563.196 193.392C561.682 193.948 559.618 194.207 558.118 193.477C555.342 192.127 554.427 187.91 554.063 185.12C552.335 171.856 556.639 139.724 558.366 124.944C558.976 119.73 561.254 111.248 559.612 106.391C559.592 106.33 559.569 106.269 559.547 106.208C559.535 106.281 559.531 106.357 559.511 106.429C558.801 109.025 525.391 151.36 521.407 155.968C518.503 159.326 515.364 162.831 511.734 165.409C509.903 166.708 508.342 167.397 506.1 167.023C495.821 160.428 489.623 123.09 482.811 112.419L482.677 112.213C482.708 112.324 482.78 112.548 482.788 112.679C482.931 114.843 479.96 126.691 478.65 128.297C478.858 128.95 478.986 129.582 478.947 130.273C478.57 136.935 473.823 152.571 472.077 160.227C469.697 170.661 468.155 181.422 465.449 191.756C465.025 193.374 464.606 195.353 463.294 196.484C461.044 196.475 458.294 195.44 456.68 193.838C454.762 191.935 454.142 189.411 454.197 186.791C454.338 180.135 457.777 170.406 459.415 163.759C463.634 146.643 468.266 129.39 471.363 112.036C472.27 106.949 471.298 93.7976 475.061 90.3411C476.328 89.1769 478.412 88.4221 480.137 88.5194C482.257 88.6389 483.943 89.8162 485.295 91.3813C486.864 93.1974 487.907 95.4431 488.819 97.6427C491.191 103.363 509.144 152.07 509.024 153.739C517.666 148 541.734 112.639 549.624 102.357C554.071 96.5623 558.911 91.1675 563.912 85.8513Z"/>
	<path fill="#0243B7" transform="scale(0.234043 0.235)" d="M803.721 70.417Q804.379 70.3535 805.039 70.3374C806.505 70.3092 807.851 70.6493 808.914 71.7151C811.013 73.8218 810.679 77.6885 810.315 80.4079C809.296 88.0086 806.253 96.0186 804.258 103.458C799.606 120.803 793.517 145.803 793.148 163.518C793.058 167.829 793.024 175.339 796.32 178.625C801.061 183.352 807.527 176.515 812.631 176.404L813.291 177.159C813.299 178.234 813.203 179.202 812.815 180.215C810.876 185.278 805.65 189.266 800.801 191.307C797.851 192.549 794.214 193.499 791.138 192.168C780.493 187.561 785.493 168.998 782.651 161.994C782.628 161.938 782.604 161.883 782.581 161.827C782.574 161.972 782.575 162.191 782.537 162.341C781.691 165.709 772.149 177.402 769 179.1C768.927 179.361 768.928 179.381 768.81 179.664C767.15 183.67 755.377 190.598 751.545 192.165C747.469 193.832 741.995 194.864 737.8 193.043C734.184 191.473 731.975 188.244 730.631 184.646C726.729 174.196 729.658 162.219 734.143 152.413C739.755 140.138 750.55 125.224 763.587 120.429C769.217 118.358 776.754 117.503 782.349 120.153C784.409 121.129 787.38 123.369 788.143 125.562C790.227 122.535 790.476 117.247 791.152 113.566C793.044 103.252 796.439 76.8207 803.721 70.417ZM767.165 129.582C755.227 135.185 745.39 150.088 740.983 162.252C739.426 166.551 737.215 173.535 739.361 177.963C740.363 180.031 742.231 181.166 744.354 181.828C746.531 182.507 748.922 181.861 750.906 180.827C751.427 180.556 751.864 180.172 752.26 179.743C764.458 175.165 776.262 158.823 781.46 147.289C783.111 143.626 784.538 139.058 783.049 135.103C782.242 132.961 780.492 131.339 778.405 130.462C774.925 128.999 770.842 128.979 767.165 129.582Z"/>
	<path fill="#0243B7" transform="scale(0.234043 0.235)" d="M707.487 70.4168C708.723 70.2448 709.794 70.3548 711.023 70.5265C712.092 71.1435 713.039 71.7823 713.609 72.9147C717.009 79.668 709.87 96.0465 707.673 103.21C703.375 117.223 692.633 165.681 699.152 177.378C703.849 185.805 712.429 174.754 717.738 176.246C717.857 176.784 717.86 177.297 717.757 177.838C716.89 182.425 712.941 186.099 709.206 188.521C705.352 191.02 700.591 193.084 695.919 191.982C682.688 188.86 690.064 167.63 686.031 161.209C686 161.16 685.968 161.112 685.936 161.063Q685.844 161.913 685.611 162.736C684.107 168.021 676.863 177.177 672.274 179.743C672.162 180.009 672.041 180.27 671.897 180.52C669.167 185.262 657.737 191.398 652.596 192.898C648.595 194.065 643.799 194.582 640.036 192.421C636.297 190.274 634.482 186.108 633.451 182.106C630.213 169.539 635.148 155.802 641.549 145.001C647.891 134.301 657.529 122.627 670.066 119.502C675.333 118.189 682.276 117.831 687.087 120.802C688.964 121.961 691.238 124.16 691.779 126.343C693.849 123.451 694.073 117.956 694.679 114.426C696.501 103.802 699.603 77.1741 707.487 70.4168ZM671.626 129.581C659.133 135.92 649.206 148.907 644.816 162.171C643.055 167.492 641.855 174.847 644.566 180.077C645.33 181.551 646.305 182.253 647.784 182.924C649.652 183.109 652.979 181.966 654.405 180.748C654.514 180.655 654.636 180.489 654.719 180.386C667.298 176.111 678.872 159.347 684.501 147.923C686.351 144.168 688.095 139.442 686.72 135.247C686.002 133.056 684.541 131.48 682.472 130.5C678.818 128.768 675.51 129.038 671.626 129.581Z"/>
	<path fill="#28A0CA" transform="scale(0.234043 0.235)" d="M111.227 163.297C116.032 161.274 120.657 160.457 125.834 160.074C129.912 163.026 132.584 166.952 135.473 171.01C131.435 171.716 128.208 172.072 124.753 174.435C123.707 171.96 122.692 168.6 120.392 167.014C119.204 166.194 117.828 165.797 116.394 166.081C112.562 166.841 109.975 171.184 108.052 174.199L106.198 175.332C102.584 179.089 100.731 181.301 99.4587 186.376C100.605 187.824 101.412 189.303 103.398 189.632C105.017 189.9 107.087 189.58 108.744 189.498C112.423 188.341 117.013 189.132 120.9 188.21C125.592 187.097 141.08 180.761 144.07 181.013C146.895 186.428 151.782 188.204 154.912 192.967C157.962 197.608 159.15 223.491 157.436 228.999C156.289 232.683 154.442 236.136 153.294 239.813L152.407 242.799C152.12 240.765 151.581 239.224 150.733 237.378L147.863 236.426C146.473 237.446 145.086 238.449 143.633 239.382C143.533 235.565 141.878 233.332 139.824 230.259L134.027 223.693C132.604 226.335 131.216 228.422 129.082 230.539C126.56 233.083 124.544 235.783 122.498 238.704L121.592 239.377C120.956 238.601 120.684 237.875 119.648 237.779C117.89 237.615 116.649 238.097 115.048 238.729C114.591 239.219 113.852 239.832 113.646 240.475C111.648 244.402 109.328 248.388 107.639 252.446C105.897 253.592 105.866 253.634 103.806 253.356C102.479 251.998 102.416 251.934 102.242 250.048L101.613 249.948L100.976 248.941L100.225 248.932C96.2172 246.387 92.9883 238.714 87.992 238.312L86.7334 237.759C85.232 234.92 82.7991 232.348 80.7526 229.892C72.0823 219.484 69.6582 214.809 67.8405 201.28Q70.1556 198.388 72.3634 195.413C73.8835 196.757 75.6575 198.63 77.4254 199.604C78.8656 200.397 79.7676 200.309 81.2686 199.962L81.7396 198.594C80.442 194.386 77.2108 193.147 73.6598 191.158C69.2543 195.994 65.6304 202.929 59.6184 205.859C56.8299 207.218 55.2235 206.767 52.4371 205.799C46.9546 209.385 28.9069 217.018 22.5945 215.953C20.9826 215.681 19.0591 214.88 18.1652 213.42C17.3262 212.05 17.3541 210.556 17.874 209.07C19.006 205.833 22.8162 203.282 25.7239 201.813C33.1724 198.049 41.7544 197.095 49.7055 194.896C52.7553 194.053 56.1296 192.362 59.2423 192.059C61.1658 191.872 63.3164 192.735 65.1224 193.335C68.8662 188.704 81.9342 177.333 87.6192 176.135C88.926 176.904 88.4431 179.218 88.9176 180.755C93.6349 172.863 103.121 167.162 111.227 163.297ZM143.348 219.181C142.199 220.797 142.378 222.649 142.203 224.602C142.949 226.049 143.1 227.077 144.723 227.61C146.115 226.92 147.185 226.255 148.302 225.17C149.21 229.952 145.571 230.975 147.863 236.426L150.733 237.378C152.15 234.01 153.542 230.706 153.696 227.009C153.89 222.326 152.288 218.809 149.135 215.409C147.308 216.738 145.41 218.243 143.348 219.181ZM141.528 204.367C142.934 209.754 145.599 212.014 149.791 215.351C149.826 215.243 149.864 215.136 149.896 215.028C150.271 213.758 150.544 196.356 149.86 195.174C149.228 194.084 148.795 193.776 147.606 193.473C145.883 195.749 146.308 198.8 145.424 201.409C144.925 202.881 142.836 203.721 141.528 204.367ZM102.242 250.048C102.416 251.934 102.479 251.998 103.806 253.356C105.866 253.634 105.897 253.592 107.639 252.446C109.328 248.388 111.648 244.402 113.646 240.475C112.446 237.968 111.47 235.834 108.656 234.836C107.504 234.427 106.356 234.402 105.15 234.462L103.898 235.238C103.801 236.776 104.124 237.028 104.917 238.304C106.858 239.351 108.348 239.683 109.184 241.795C108.697 245.158 104.322 247.548 102.242 250.048ZM123.043 198.226C121.865 203.515 127.554 209.462 129.18 214.577C127.895 216.22 126.609 217.39 126.274 219.48L126.743 219.991C128.739 218.336 130.201 217.166 130.493 214.412C131.074 208.925 128.495 204.052 125.813 199.499C124.874 198.879 124.161 198.463 123.043 198.226ZM110.053 191.657C108.778 192.981 108.28 193.352 107.917 195.148C108.415 196.205 108.829 197.045 109.67 197.878C111.504 198.404 114.341 198.897 116.156 198.087C117.212 197.616 117.232 197.217 117.59 196.208C117.402 195.765 117.208 195.341 116.956 194.93C115.554 192.645 112.462 192.255 110.053 191.657ZM74.3599 209.8C73.9446 212.004 74.6494 213.614 75.8805 215.399C77.5935 217.881 79.698 220.137 81.7076 222.379C81.8584 218.886 81.1771 215.534 80.5594 212.116C78.6093 211.304 76.4454 210.135 74.3599 209.8ZM119.389 236.927C120.115 236.056 120.985 235.126 121.436 234.078C122.034 232.688 121.677 232.333 121.129 231.003C119.31 229.951 117.796 229.077 115.665 228.801L114.581 229.374C114.164 231.147 115.272 233.03 116.202 234.497C116.709 235.295 117.338 236.031 117.969 236.731L119.389 236.927ZM85.9717 206.151C84.5518 207.691 83.1519 208.744 82.6994 210.823C83.6158 212.411 84.8057 213.358 86.2165 214.474C87.5019 213.021 88.5123 211.95 88.845 209.96C88.3684 208.204 87.9898 207.411 86.3679 206.362C86.2599 206.292 86.0772 206.205 85.9717 206.151ZM136.746 210.36C136.843 212.818 136.482 215.908 138.049 217.833C139.368 217.836 140.177 217.796 141.327 217.106C140.199 214.17 139.371 212.18 136.746 210.36Z"/>
	<path fill="#1198C2" transform="scale(0.234043 0.235)" d="M121.129 231.003C124.222 231.274 125.804 229.536 129.082 230.539C126.56 233.083 124.544 235.783 122.498 238.704C121.539 237.561 120.825 237.276 119.389 236.927C120.115 236.056 120.985 235.126 121.436 234.078C122.034 232.688 121.677 232.333 121.129 231.003Z"/>
	<path fill="#1198C2" transform="scale(0.234043 0.235)" d="M109.67 197.878C109.067 198.293 108.398 198.759 107.704 199C106.428 199.445 104.085 198.899 102.934 198.299C101.747 197.679 101.084 196.09 100.676 194.879C100.321 193.828 99.1462 187.011 99.4587 186.376C100.605 187.824 101.412 189.303 103.398 189.632C105.017 189.9 107.087 189.58 108.744 189.498L110.121 190.166L109.187 190.715L110.053 191.657C108.778 192.981 108.28 193.352 107.917 195.148C108.415 196.205 108.829 197.045 109.67 197.878Z"/>
	<path fill="#DE1686" transform="scale(0.234043 0.235)" d="M166.25 235.151C169.505 233.662 171.279 234.072 174.548 235.292C181.782 237.992 195.951 244.359 201.326 249.515C204.911 252.345 207.813 255.524 210.531 259.185Q208.2 263.674 205.649 268.042L203.291 267.253C200.442 266.542 197.425 265.319 194.547 266.346C191.691 270.092 188.873 269.724 189.458 275.132C194.936 282.131 202.705 307.74 206.969 317.623C212.249 329.86 219.261 341.873 223.685 354.402C224.552 356.856 224.75 359.773 224.455 362.344C224.09 365.518 222.783 369.119 220.228 371.196C218.955 372.232 218.322 372.379 216.747 372.511C212.907 371.129 210.884 367.055 209.244 363.569C204.773 354.061 202.474 343.847 198.598 334.162C197.002 330.174 193.903 326.73 192.488 322.674C191.46 319.728 192.484 314.669 190.639 312.433C187.189 311.591 181.045 312.865 178.018 314.742C177.792 314.882 177.582 315.032 177.368 315.189C173.69 316.71 169.812 317.732 165.996 318.845C161.9 320.645 159.79 320.891 155.42 320.029C151.047 320.789 147.311 319.83 143.118 318.587C139.309 316.912 136.262 314.244 132.703 312.161Q133.111 313.696 133.341 315.267C133.709 317.699 134.243 320.561 134.035 323.006C133.645 327.589 131.756 332.45 130.744 336.959C129.354 343.153 128.59 349.688 126.659 355.737C125.988 357.84 125.04 360.005 123.7 361.773C122.431 363.447 121.505 363.791 119.553 364.082C118.182 363.561 117.395 362.918 116.539 361.719C115.227 359.883 113.913 356.818 113.797 354.556C113.412 347.025 120.27 325.43 122.799 317.469C123.532 315.163 124.997 313.046 125.353 310.656C125.37 310.545 125.384 310.434 125.399 310.323C122.338 306.648 124.152 300.293 123.385 295.837C123.011 293.661 121.796 291.21 120.946 289.168C125.364 279.72 123.426 275.151 123.245 265.216C123.128 258.773 124.143 248.997 128.928 244.211C132.225 240.914 135.63 241.103 139.947 241.151C141.19 240.766 142.463 239.971 143.633 239.382C145.086 238.449 146.473 237.446 147.863 236.426L150.733 237.378C151.581 239.224 152.12 240.765 152.407 242.799L153.294 239.813C157.313 237.703 162.625 238.447 166.25 235.151ZM166.25 235.151C167.426 236.346 169.169 237.49 169.176 239.182L168.57 240.85C170.09 244.084 173.127 246.729 175.633 249.223L174.568 250.787L172.927 251.066L173.484 250.79L173.724 252.323L172.153 251.177L172.437 250.967L171.582 251.589C172.711 252.175 174.007 252.683 174.788 253.725C173.826 253.792 172.941 253.884 172.003 254.132C174.68 254.247 180.079 253.667 182.371 254.923L182.893 256.639L181.792 257.811L180.626 256.118C179.174 256.608 178.982 256.896 178.049 258.112C178.786 260.478 181.416 261.407 182.75 263.616L182.22 264.655C183.666 266.951 186.816 267.266 187.971 269.487C188.861 271.198 186.583 274.279 189.458 275.132C188.873 269.724 191.691 270.092 194.547 266.346C197.425 265.319 200.442 266.542 203.291 267.253L205.649 268.042Q208.2 263.674 210.531 259.185C207.813 255.524 204.911 252.345 201.326 249.515C195.951 244.359 181.782 237.992 174.548 235.292C171.279 234.072 169.505 233.662 166.25 235.151ZM147.863 236.426C146.473 237.446 145.086 238.449 143.633 239.382C142.463 239.971 141.19 240.766 139.947 241.151C139.402 243.915 139.012 246.92 137.663 249.419L136.089 250.173C135.588 253.537 134.691 256.284 133.206 259.341L130.032 264.422C130.2 269.24 131.394 273.67 134.997 277.062C136.03 278.035 137.233 278.831 138.424 279.596L142.158 277.48Q142.558 277.107 142.907 276.685C145.768 273.266 148.731 262.578 148.315 258.122C150.59 252.894 152.301 248.614 152.407 242.799C152.12 240.765 151.581 239.224 150.733 237.378L147.863 236.426ZM152.115 308.331C150.01 309.917 146.619 311.875 145.633 314.359C147.831 315.141 150.9 316.215 153.161 315.413C154.857 313.951 154.969 313.133 155.635 311.057C154.944 306.82 154.875 303.538 151.196 300.709L149.729 300.478C149.065 301.519 148.798 301.938 149.096 303.236C149.506 305.024 151.128 306.794 152.115 308.331ZM130.032 264.422L133.206 259.341C134.691 256.284 135.588 253.537 136.089 250.173C133.573 250.695 131.611 251.39 130.15 253.703C128.417 256.447 128.861 260.183 129.638 263.181C129.748 263.603 129.882 264.012 130.032 264.422ZM129.639 306.774L131.328 309.113C133.219 308.356 135.046 307.499 136.737 306.353C138.579 305.107 139.234 303.81 139.638 301.695L138.75 300.571L136.782 300.405C133.495 301.551 131.638 304.067 129.639 306.774ZM185.561 293.598C184.128 295.326 183.262 296.525 182.832 298.797C183.283 300.206 183.418 300.306 184.717 301.01L187.248 300.852C188.496 299.329 189.979 297.86 190.197 295.822C189.377 294.438 188.976 294.157 187.341 293.775C186.768 293.642 186.147 293.623 185.561 293.598ZM192.803 300.629C192.971 303.198 192.724 307.28 194.29 309.358C196.163 309.668 196.755 308.871 198.262 307.848L199.111 306.756C198.284 303.993 195.118 302.11 192.803 300.629ZM154.43 267.908C152.434 269.754 150.36 271.446 149.248 273.989C149.233 274.894 149.176 275.712 149.486 276.578C151.633 275.959 153.405 275.346 154.54 273.232C155.178 272.044 155.226 269.86 154.766 268.608C154.674 268.359 154.564 268.136 154.43 267.908ZM185.442 284.06C184.492 285.511 183.591 286.362 183.656 288.148C184.975 288.957 186.296 288.621 187.749 288.425C189.15 287.548 190.098 287.304 190.609 285.646C189.024 284.294 187.525 284.06 185.442 284.06Z"/>
	<path fill="#EC257A" transform="scale(0.234043 0.235)" d="M138.424 279.596L142.158 277.48C142.179 277.597 142.198 277.716 142.221 277.833C142.828 281 145.794 283.142 145.918 286.529C145.161 286.665 144.429 286.99 143.773 286.544C141.181 284.775 140.102 282.134 138.424 279.596Z"/>
	<path fill="#F2308C" transform="scale(0.234043 0.235)" d="M155.635 311.057L158.046 312.004C158.177 312.54 158.402 313.177 158.406 313.721C158.848 315.074 158.857 315.976 160.066 316.773C161.062 316.568 163.046 315.858 163.85 316.408C164.756 317.029 165.36 317.967 165.996 318.845C161.9 320.645 159.79 320.891 155.42 320.029C151.047 320.789 147.311 319.83 143.118 318.587C143.845 317.14 144.796 315.748 145.633 314.359C147.831 315.141 150.9 316.215 153.161 315.413C154.857 313.951 154.969 313.133 155.635 311.057Z"/>
	<path fill="#1198C2" transform="scale(0.234043 0.235)" d="M147.863 236.426L150.733 237.378C151.581 239.224 152.12 240.765 152.407 242.799C152.301 248.614 150.59 252.894 148.315 258.122C148.731 262.578 145.768 273.266 142.907 276.685Q142.558 277.107 142.158 277.48L138.424 279.596C137.233 278.831 136.03 278.035 134.997 277.062C131.394 273.67 130.2 269.24 130.032 264.422L133.206 259.341C134.691 256.284 135.588 253.537 136.089 250.173L137.663 249.419C139.012 246.92 139.402 243.915 139.947 241.151C141.19 240.766 142.463 239.971 143.633 239.382C145.086 238.449 146.473 237.446 147.863 236.426ZM139.653 250.423C139.657 252.345 139.452 254.345 140.596 255.995C141.948 257.011 142.871 257.288 144.551 257.427L145.297 257.043C145.255 255.167 145.306 253.524 144.349 251.841C142.876 250.506 141.534 250.508 139.653 250.423Z"/>
	<path fill="#28A0CA" transform="scale(0.234043 0.235)" d="M137.663 249.419C138.265 249.736 139.006 250.253 139.653 250.423C139.657 252.345 139.452 254.345 140.596 255.995C141.948 257.011 142.871 257.288 144.551 257.427C141.12 259.198 138.511 256.8 133.461 259.215C133.375 259.256 133.291 259.299 133.206 259.341C134.691 256.284 135.588 253.537 136.089 250.173L137.663 249.419Z"/>
	<path fill="#EC257A" transform="scale(0.234043 0.235)" d="M166.25 235.151C169.505 233.662 171.279 234.072 174.548 235.292C181.782 237.992 195.951 244.359 201.326 249.515C204.911 252.345 207.813 255.524 210.531 259.185Q208.2 263.674 205.649 268.042L203.291 267.253C200.442 266.542 197.425 265.319 194.547 266.346C191.691 270.092 188.873 269.724 189.458 275.132C186.583 274.279 188.861 271.198 187.971 269.487C186.816 267.266 183.666 266.951 182.22 264.655L182.75 263.616C181.416 261.407 178.786 260.478 178.049 258.112C178.982 256.896 179.174 256.608 180.626 256.118L181.792 257.811L182.893 256.639L182.371 254.923C180.079 253.667 174.68 254.247 172.003 254.132C172.941 253.884 173.826 253.792 174.788 253.725C174.007 252.683 172.711 252.175 171.582 251.589L172.437 250.967L172.153 251.177L173.724 252.323L173.484 250.79L172.927 251.066L174.568 250.787L175.633 249.223C173.127 246.729 170.09 244.084 168.57 240.85L169.176 239.182C169.169 237.49 167.426 236.346 166.25 235.151ZM201.326 249.515L203.67 253.966C202.324 254.395 201.135 253.99 199.784 254.074C197.672 252.854 194.896 250.901 192.459 250.54C190.287 250.217 189.785 250.715 188.156 251.974C187.971 255.438 187.867 256.885 190.167 259.641L191.924 259.99C192.624 262.248 193.26 264.338 194.547 266.346C197.425 265.319 200.442 266.542 203.291 267.253L205.649 268.042Q208.2 263.674 210.531 259.185C207.813 255.524 204.911 252.345 201.326 249.515ZM169.176 239.182L168.57 240.85C170.09 244.084 173.127 246.729 175.633 249.223C177.398 250.608 180.014 253.261 182.405 253.019C183.64 252.895 184.984 252.585 186.114 252.056C181.498 246.682 175.237 242.72 169.176 239.182Z"/>
	<path fill="#F2308C" transform="scale(0.234043 0.235)" d="M201.326 249.515C204.911 252.345 207.813 255.524 210.531 259.185Q208.2 263.674 205.649 268.042L203.291 267.253C200.442 266.542 197.425 265.319 194.547 266.346C193.26 264.338 192.624 262.248 191.924 259.99L190.167 259.641C187.867 256.885 187.971 255.438 188.156 251.974C189.785 250.715 190.287 250.217 192.459 250.54C194.896 250.901 197.672 252.854 199.784 254.074C201.135 253.99 202.324 254.395 203.67 253.966L201.326 249.515ZM188.156 251.974C187.971 255.438 187.867 256.885 190.167 259.641L191.924 259.99C193.317 258.764 194.374 257.653 196.335 257.584C199.887 258.199 202.123 261.529 205.569 262.618C206.15 261.241 206.024 260.881 205.809 259.444C204.432 257.039 202.001 255.631 199.784 254.074C197.672 252.854 194.896 250.901 192.459 250.54C190.287 250.217 189.785 250.715 188.156 251.974Z"/>
	<path fill="#FED906" transform="scale(0.234043 0.235)" d="M254.746 221.077C255.994 219.359 267.292 214.612 269.691 214.249C270.297 214.157 270.894 214.136 271.505 214.153C272.651 215.539 273.293 222.209 273.143 224.117C273.073 225.02 272.903 225.924 272.737 226.814L272.659 228.053C271.012 229.47 267.259 229.685 265.135 229.537C265.045 229.531 264.954 229.523 264.864 229.515C262.628 229.033 260.909 229.303 258.963 230.556C256.894 231.889 255.147 233.967 254.636 236.419C254.216 238.435 254.531 240.527 255.716 242.23C257.674 245.045 261.11 246.055 264.322 246.562C271.707 247.729 278.574 248.382 285.951 247.04C288.972 248.378 291.99 249.657 294.769 251.465C303.439 250.883 326.014 252.801 333.387 256.348C336.674 255.882 339.981 255.308 343.281 254.97C348.047 256.81 354.48 259.866 356.77 264.795C357.4 266.151 357.568 267.645 357.05 269.068C356.171 271.487 353.746 273.086 351.478 274.067Q350.353 274.548 349.2 274.96Q330.657 271.653 312.49 266.677L305.463 269.054C300.905 267.404 296.968 265.235 292.804 262.788C290.746 266.72 287.806 271.117 288.19 275.71C288.533 276.304 288.832 277.23 289.504 277.406C294.809 278.8 300.731 277.593 306.122 278.594C312.978 279.866 320.008 283.407 326.757 285.421C333.226 287.351 340.428 288.083 346.619 290.673C349.916 292.051 354.705 294.503 356.647 297.639C357.28 298.661 357.305 299.906 357.005 301.069C356.32 303.725 354.132 306.165 351.758 307.472C349.428 308.755 346.895 308.655 344.424 307.881C341.081 306.833 337.945 305.237 334.661 304.032C327.419 301.375 320.168 298.893 312.96 296.129C308.782 294.526 304.309 293.446 300.249 291.579C291.764 287.677 293.06 283.927 289.967 281.521C289.053 280.81 288.617 281.2 287.625 281.507C283.639 285.864 284.559 292.691 281.725 297.599C277.678 304.606 270.541 309.108 266.259 315.977C268.706 316.599 271.685 317.16 273.784 318.597C277.556 321.18 280.056 325.175 283.36 328.268C288.72 333.287 297.268 338.087 300.945 344.426C301.774 345.856 302.381 347.483 301.959 349.148C301.554 350.747 300.169 352.088 298.763 352.861C297.151 353.748 295.42 353.804 293.682 353.258C287.308 351.254 271.954 334.285 266.529 328.723C263.96 326.09 261.34 322.704 258.217 320.742C253.486 317.769 248.241 315.741 243.278 313.211C238.832 310.945 234.791 307.939 230.471 305.453C220.119 299.494 208.474 295.341 202.007 284.413Q201.526 283.611 201.111 282.772Q200.979 282.501 200.856 282.225C202.985 277.813 205.882 273.09 205.649 268.042Q208.2 263.674 210.531 259.185C213.875 254.134 212.687 248.515 215.066 243.349C218.437 236.03 239.512 222.75 247.325 219.796C249.302 219.049 250.791 218.71 252.748 219.597C252.007 223.419 244.537 227.488 241.521 229.958C239.796 231.371 238.214 232.798 237.981 235.062C238.499 235.744 239.039 236.369 239.716 236.901C240.896 237.827 242.158 238.737 243.723 238.543C247.447 236.194 252.251 229.989 254.672 226.23C255.811 224.461 255.158 222.943 254.746 221.077ZM263.669 289.062C263.119 290.249 262.417 291.604 262.881 292.927C264.062 296.293 267.743 299.216 270.889 300.577C272.306 301.19 273.218 301.264 274.651 300.705C275.236 300.476 275.74 300.047 276.22 299.649L277.951 293.545L276.947 293.059C274.705 293.867 273.642 294.702 271.322 293.594C268.692 292.337 266.504 289.811 263.669 289.062ZM232.63 237.779C228.43 240.074 222.679 242.133 220.923 246.925L221.285 248.044C222.216 248.053 222.897 248.099 223.74 247.632C226.951 246.902 232.839 247.153 234.756 244.197C235.673 242.783 235.923 240.633 235.748 238.979C234.686 238.165 233.938 237.962 232.63 237.779ZM255.611 301.793C254.565 304.234 253.949 306.07 255.059 308.684C256.391 311.82 260.051 314.425 263.108 315.698C263.52 312.319 260.785 305.669 258.677 303.071C257.797 301.987 256.893 301.975 255.611 301.793ZM222.95 291.867C218.72 288.479 215.926 285.377 213.378 280.57C211.702 280.627 211.506 280.548 210.29 281.71C209.886 283.489 210.324 284.739 211.275 286.272C213.017 289.081 215.903 291.649 219.176 292.457C220.554 292.796 221.718 292.49 222.95 291.867ZM235.11 273.731C235.775 278.098 238.057 279.423 241.493 281.954C243.763 283.627 246.249 285.509 248.842 286.655C248.498 283.188 242.374 277.099 239.572 274.804C238.296 273.759 236.686 273.723 235.11 273.731ZM281.416 252.932C283.379 255.042 287.221 259.702 290.306 259.992C290.743 260.033 291.156 259.982 291.581 259.888C291.754 257.604 292.015 256.514 291.021 254.399C288.637 252.32 284.4 252.893 281.416 252.932ZM275.472 256.346C274.35 257.983 274.062 258.096 274.394 260.055C275.638 262.06 277.709 263.355 279.685 264.575C280.679 263.15 281.151 261.766 280.831 260.003C280.548 258.446 279.472 257.538 278.231 256.701L275.472 256.346ZM266.945 249.041C266.44 249.765 265.24 251.056 265.38 251.894C265.827 254.583 269 256.276 271.039 257.756C271.722 255.994 272.386 254.765 271.537 252.893C270.896 251.479 268.766 249.676 267.293 249.153C267.178 249.113 267.061 249.078 266.945 249.041Z"/>
	<path fill="#EC257A" transform="scale(0.234043 0.235)" d="M213.378 280.57C215.078 280.569 216.718 280.616 218.405 280.83L218.316 280.223C218.256 280.19 218.19 280.164 218.134 280.124C217.462 279.638 216.735 278.045 216.288 277.292C216.403 275.866 216.494 275.648 217.489 274.621L218.766 274.711C220.77 277.345 225.626 285.585 225.205 288.726C225.088 289.604 224.413 290.821 223.69 291.375C223.452 291.557 223.207 291.716 222.95 291.867C218.72 288.479 215.926 285.377 213.378 280.57Z"/>
	<path fill="#9964A2" transform="scale(0.234043 0.235)" d="M265.719 174.543C270.101 168.238 275.142 162.777 279.869 156.786C282.212 153.817 284.002 150.446 286.422 147.534C289.625 143.679 293.153 140.057 296.174 136.056C304.374 125.2 311.376 112.022 320.769 102.242C323.498 99.4002 327.399 96.3845 331.371 95.662C333.252 95.3198 335.22 95.618 336.761 96.8002C338.106 97.831 339.434 99.6971 339.849 101.329C339.803 103.451 338.97 104.931 337.849 106.666C332.043 115.649 324.128 123.499 317.429 131.831C313.447 136.785 310.03 142.726 305.456 147.1Q302.457 149.919 299.346 152.615C302.143 154.39 307.927 160.45 310.947 160.515C313.148 152.454 332.887 137.119 339.458 130.424C344.6 125.185 349.337 117.291 355.731 113.68C357.755 112.537 360.014 111.985 362.299 112.649C364.384 113.255 366.589 114.991 367.626 116.905C368.408 118.347 368.409 119.724 368.174 121.303C368.159 121.402 368.148 121.501 368.133 121.599C367.184 127.898 343.41 144.948 337.857 149.944C333.669 153.712 329.907 158.749 325.38 162.009C323.2 163.579 320.314 163.337 317.808 162.876C315.974 162.539 314.331 162.088 312.445 162.291C313.561 164.203 314.819 166.416 316.557 167.833C318.211 169.182 322.561 170.019 323.031 171.854L322.114 172.749C325.811 178.274 328.033 183.787 329.825 190.15C330.549 192.719 331.017 195.586 332.251 197.95C332.595 198.132 332.819 198.243 333.216 198.262C334.847 198.34 338.686 194.306 340.029 193.114C346.216 192.513 351.097 190.063 357.044 188.819L361.861 187.329C366.712 185.144 372.08 182.366 377.474 184.352C378.991 184.91 380.485 185.987 381.136 187.514C381.709 188.86 381.62 190.447 381.011 191.763C379.244 195.581 374.305 198.418 370.487 199.697C362.1 202.505 341.483 208.856 333.361 208.364C330.616 211.268 317.294 221.233 313.806 222.574C310.231 224.579 306.477 226.218 302.924 228.255C300.341 229.736 297.654 231.998 294.961 233.14C293.387 234.638 290.423 235.728 288.395 236.575C283.184 238.751 277.305 240.809 271.775 238.478C267.723 236.769 266.424 233.29 264.864 229.515C264.954 229.523 265.045 229.531 265.135 229.537C267.259 229.685 271.012 229.47 272.659 228.053L272.737 226.814C272.903 225.924 273.073 225.02 273.143 224.117C273.293 222.209 272.651 215.539 271.505 214.153C270.894 214.136 270.297 214.157 269.691 214.249C267.292 214.612 255.994 219.359 254.746 221.077C252.821 214.768 248.52 211.513 243.464 207.695C238.613 194.18 240.525 174.589 244.581 161.078C246.798 157.891 246.54 151.349 247.779 147.318C248.401 145.296 249.692 143.281 250.686 141.399C250.586 139.021 250.79 136.724 251.017 134.361C252.319 130.781 253.731 127.439 255.456 124.037C256.814 122.559 258.341 120.689 260.525 120.665C262.119 120.647 263.116 121.21 264.159 122.37C266.779 125.281 267.748 132.504 268.372 136.301L269.324 136.285C266.985 139.178 265.229 142.68 263.712 146.071C263.731 147.411 263.614 148.747 264.37 149.914C262.808 149.781 262.264 149.657 260.995 150.761C259.282 152.252 258.357 155.598 257.596 157.695C258.156 157.997 258.868 158.51 259.49 158.603C257.489 158.899 256.572 158.899 254.944 160.21C254.062 162.5 255.735 165.545 256.678 167.663L256.95 168.271C260.551 170.02 263.252 171.277 265.719 174.543ZM248.716 163.12C245.877 166.736 245.088 172.907 245.636 177.364C245.892 179.442 246.467 181.289 248.185 182.617C248.641 182.969 249.453 182.892 250.032 182.826C250.521 182.77 251.017 182.624 251.49 182.496C253.028 181.735 254.1 181.53 254.869 179.914C254.436 176.902 252.04 175.231 251.192 172.509C250.515 170.338 251.673 167.762 250.909 165.656C250.516 164.574 249.601 163.805 248.716 163.12ZM249.996 187.396C249.943 191.453 247.287 201.882 249.295 204.96L250.474 205.404L251.679 204.692C251.829 203.874 251.965 203.279 251.705 202.475C251.877 201.67 251.996 200.042 252.367 199.373C253.529 197.279 257.493 195.342 255.539 192.386C254.22 190.39 251.66 189.156 249.996 187.396ZM318.758 181.017L318.605 181.25C316.323 184.674 310.706 186.943 310.19 190.961L310.841 192.076C312.397 192.402 313.654 192.148 315.023 191.31C316.493 190.411 317.043 188.595 317.59 187.055L318.336 186.683C321.187 187.832 323.742 189.455 326.349 191.062C324.703 187.311 322.772 182.819 318.758 181.017ZM272.737 226.814L272.659 228.053C275.385 230.023 277.993 234.051 281.658 233.512C284.322 233.121 286.602 230.21 288.053 228.14Q283.041 228.098 278.03 227.96C276.296 227.468 274.505 227.162 272.737 226.814ZM286.342 157.121C285.773 159.084 285.507 160.175 286.563 162.113C287.291 163.45 288.996 164.783 290.449 165.187C291.412 165.455 292.685 165.356 293.678 165.307C293.894 163.939 294.071 163.307 293.181 162.122C292.156 160.757 287.973 157.42 286.342 157.121ZM285.45 201.27L282.665 202.483C282.201 203.845 282.179 204.34 282.45 205.753C283.718 206.973 284.012 207.436 285.745 207.703C287.486 206.419 289.408 205.291 290.195 203.18C289.719 202.147 289.708 201.985 288.631 201.598C287.597 201.227 286.534 201.256 285.45 201.27ZM316.042 199.816C315.939 201.146 315.687 201.513 316.576 202.572C318.535 204.906 322.34 206.622 325.364 206.857C325.282 205 324.936 204.237 323.501 202.937C321.585 201.202 318.588 199.93 316.042 199.816ZM279.97 163.102C278.639 164.606 277.983 165.193 277.552 167.205C278.139 169.074 279.564 169.934 281.069 171.034C282.573 169.51 282.951 169.277 283.328 167.205C282.672 165.213 281.546 164.349 279.97 163.102ZM293.602 146.949C291.356 149.151 288.943 151.753 288.719 155.052C289.383 155.383 289.506 155.519 290.262 155.409C292.175 153.619 294.103 151.996 295.199 149.561L295.127 147.891C294.649 147.48 294.25 147.041 293.602 146.949ZM253.552 142.047C253.154 143.744 252.577 145.184 253.553 146.819C254.338 148.134 255.933 149.425 257.114 150.388C257.823 148.549 258.348 146.624 258.927 144.741C257.184 143.679 255.419 142.856 253.552 142.047ZM269.268 192.729C270.288 195.615 271.211 198.209 274.149 199.673C274.944 200.07 275.794 200.228 276.666 200.345C276.304 198.374 275.924 196.619 274.181 195.388C272.746 194.373 270.901 193.391 269.268 192.729Z"/>
	<path fill="#A76CA1" transform="scale(0.234043 0.235)" d="M357.044 188.819L361.861 187.329C362.182 188.807 362.54 190.058 362.257 191.584C360.965 191.974 360.727 191.89 359.503 191.483L357.044 188.819Z"/>
	<path fill="#A76CA1" transform="scale(0.234043 0.235)" d="M308.137 168.536C309.286 168.191 309.893 168.363 310.97 168.744L311.053 169.605C309.605 171.658 308.992 171.835 306.759 172.761C306.046 173.153 305.271 173.109 304.477 173.145C304.457 172.99 304.426 172.848 304.444 172.693C304.66 170.866 306.782 169.532 308.137 168.536Z"/>
	<path fill="#A76CA1" transform="scale(0.234043 0.235)" d="M258.927 144.741C260.584 144.18 261.262 143.741 262.976 144.288L263.712 146.071C263.731 147.411 263.614 148.747 264.37 149.914C262.808 149.781 262.264 149.657 260.995 150.761C259.282 152.252 258.357 155.598 257.596 157.695C257.834 155.266 257.4 152.799 257.114 150.388C257.823 148.549 258.348 146.624 258.927 144.741Z"/>
	<path fill="#A76CA1" transform="scale(0.234043 0.235)" d="M294.961 233.14C294.977 232.959 294.977 232.861 295.046 232.673C295.618 231.102 296.433 230.789 297.802 229.96L297.624 228.204L297.579 229.298L297.293 228.888C297.371 227.977 297.474 227.085 297.968 226.292C299.784 223.379 305.348 222.99 308.492 222.199C308.658 221.316 308.879 220.615 309.287 219.814L310.904 220.026L311.766 222.012L313.806 222.574C310.231 224.579 306.477 226.218 302.924 228.255C300.341 229.736 297.654 231.998 294.961 233.14Z"/>
	<path fill="#FED906" transform="scale(0.234043 0.235)" d="M278.03 227.96L276.742 226.564C277.788 219.419 274.412 217.608 274.707 214.05C274.741 213.642 274.69 213.643 275.042 213.383C278.861 210.561 289.517 209.412 294.165 210.216C295.835 210.505 297.642 211.17 298.666 212.603C299.434 213.677 299.548 215.067 299.303 216.33C298.414 220.904 294.529 224.503 290.786 226.946C289.922 227.51 289.055 227.893 288.053 228.14Q283.041 228.098 278.03 227.96Z"/>
	<path fill="#FE8425" transform="scale(0.234043 0.235)" d="M205.947 131.388C206.37 131.117 206.813 130.831 207.18 130.484C208.105 129.608 208.794 128.951 208.784 127.64C208.744 122.237 203.459 111.966 201.192 106.658C197.126 97.1338 193.782 87.2536 189.564 77.8215C184.963 67.5355 179.053 57.1679 175.457 46.5015C174.5 43.6599 173.94 40.5935 174.141 37.5879C174.338 34.6283 175.206 31.9028 177.551 29.9217C178.717 28.9359 180.186 28.2735 181.739 28.4575C190.478 29.4928 196.907 59.2751 199.638 66.1862C201.045 69.7459 204.166 72.4775 205.514 76.1015C206.681 79.2384 206.265 83.0132 208.48 85.7639Q208.662 85.9875 208.865 86.1915Q209.069 86.3954 209.292 86.5776Q209.515 86.7598 209.755 86.9183Q209.996 87.0768 210.251 87.21Q210.507 87.3433 210.774 87.4498Q211.042 87.5563 211.319 87.6351Q211.596 87.7138 211.879 87.764Q212.163 87.8141 212.45 87.8351C215.378 88.0527 218.646 86.4454 220.776 84.5081C222.328 83.0963 221.504 82.5554 220.5 80.9472C218.043 77.0149 216.052 73.527 214.611 69.0826C212.503 62.581 212.439 55.3921 210.76 48.7445C208.711 40.6323 202.758 30.9549 203.197 22.6757C203.382 19.1873 204.812 15.8439 207.432 13.4969C208.636 12.4187 210.304 11.4743 211.978 11.6272C213.683 11.7829 215.021 12.8718 216.059 14.1576C219.415 18.3148 223.395 36.9842 223.992 42.7057C224.444 47.0359 224.03 51.7327 224.941 55.9739C226.064 61.1965 229.915 65.9798 229.435 71.5323C229.031 76.195 223.824 78.4545 223.446 82.2687C223.896 82.7522 224.066 83.1209 224.748 83.2113C229.485 83.8404 236.421 79.2839 240.027 76.4284C238.631 71.4547 235.861 64.7416 235.866 59.6455C235.869 56.9602 237.381 54.2679 237.002 51.6093C235.96 44.2927 233.473 37.0173 232.274 29.66C231.532 25.1069 230.658 18.7098 233.647 14.7583C234.977 12.999 236.712 12.3452 238.831 12.093C240.721 12.4559 241.839 13.1466 243.004 14.703C245 17.3724 246.159 20.9473 246.753 24.1947C247.777 29.8008 247.141 35.7783 247.493 41.4649C247.936 48.6445 249.736 56.4386 249.167 63.6143C248.786 68.4153 246.632 73.1612 245.925 77.9782C252.821 80.6588 259.595 83.4133 266.281 86.5983C265.01 82.711 264.153 79.1567 263.605 75.0858C266.768 67.4152 271.176 38.5272 277.235 36.1436C278.297 35.7258 279.267 35.9396 280.28 36.4426C282.379 37.4846 283.671 39.6696 284.292 41.8496C286.606 49.9838 279.825 70.0881 277.088 78.6331C276.049 81.8765 274.169 85.592 273.796 88.9576C273.009 96.0676 275.002 104.77 277.483 111.373C276.157 113.09 274.945 114.676 274.575 116.872C272.663 128.251 279.756 145.776 269.768 156.06C268.528 157.336 266.877 158.715 265.057 158.911C263.274 159.103 261.278 158.806 259.49 158.603C258.868 158.51 258.156 157.997 257.596 157.695C258.357 155.598 259.282 152.252 260.995 150.761C262.264 149.657 262.808 149.781 264.37 149.914C263.614 148.747 263.731 147.411 263.712 146.071C265.229 142.68 266.985 139.178 269.324 136.285L268.372 136.301C267.748 132.504 266.779 125.281 264.159 122.37C263.116 121.21 262.119 120.647 260.525 120.665C258.341 120.689 256.814 122.559 255.456 124.037C253.731 127.439 252.319 130.781 251.017 134.361C250.79 136.724 250.586 139.021 250.686 141.399C249.692 143.281 248.401 145.296 247.779 147.318C246.54 151.349 246.798 157.891 244.581 161.078C240.575 161.809 234.734 161.992 231.461 164.399C231.204 164.588 230.951 164.759 230.701 164.957C229.836 165.583 229.206 165.723 228.128 165.75C222.998 165.877 202.952 155.953 199.075 152.296C198.647 152.076 198.253 151.823 197.851 151.561C193.983 149.04 191.774 144.535 188.289 141.475Q185.404 139.901 182.54 138.288C175.265 132.786 175.614 128.206 164.892 121.946C163.646 118.881 161.95 115.982 160.939 112.828C160.2 110.526 160.438 109.335 161.478 107.304C164.651 105.011 168.334 105.582 172.034 105.749C174.125 106.584 176.052 107.516 178.355 107.317L180.084 111.146C181.472 113.265 182.857 115.372 184.367 117.408L186.626 119.362L187.458 119.15L187.652 118.606L188.161 119.573L187.558 120.935L188.601 122.834C190.123 124.319 192.755 126.256 192.747 128.546C192.745 129.193 192.676 129.831 192.584 130.471C194.145 132.217 195.552 133.967 198.08 134.094C200.464 134.213 203.769 132.366 205.947 131.388ZM200.435 147.61C203.266 148.744 207.044 150.736 210.054 149.288C210.162 149.236 210.267 149.176 210.373 149.12C210.771 146.494 210.704 144.542 210.055 141.965C207.569 142.117 204.945 142.456 202.464 142.386C200.262 140.913 197.81 138.876 195.11 138.667L193.889 139.307C193.93 141.258 194.608 142.668 196.028 144.036C197.386 145.344 198.897 146.525 200.435 147.61ZM213.247 151.248C219.627 153.623 223.708 159.975 230.817 160.545C229.336 156.287 225.064 151.554 221.181 149.321C219.698 148.468 217.591 147.598 215.877 148.138C214.152 148.682 213.994 149.719 213.247 151.248ZM248.197 84.8401C246.597 85.6508 244.301 86.3045 243.697 88.1437C242.615 91.4423 243.235 94.5134 244.936 97.4294C245.5 98.3965 246.099 99.0494 247.079 99.6102L249.988 99.9588C250.153 96.7278 248.526 94.2415 246.818 91.6402C248.136 90.1687 250.854 87.7745 250.94 85.8C249.945 85.0966 249.438 84.8819 248.197 84.8401ZM263.712 146.071C263.731 147.411 263.614 148.747 264.37 149.914C265.056 149.609 265.747 149.274 266.348 148.819C268.791 146.972 270.711 144.239 271.129 141.179C271.415 139.092 270.53 137.908 269.324 136.285C266.985 139.178 265.229 142.68 263.712 146.071ZM267.332 90.6845C264.513 92.2161 260.408 94.1352 259.324 97.418C258.774 99.0822 259.429 99.8975 260.184 101.33C262.933 99.7958 267.037 96.7722 267.87 93.5446C268.178 92.3522 267.964 91.6794 267.332 90.6845ZM211.466 99.8226C209.483 100.503 207.616 100.765 206.237 102.382C207.137 104.089 209.526 104.813 211.205 105.588C212.877 104.906 214.631 104.54 215.429 102.729C215.645 102.239 215.661 101.59 215.685 101.062C215.073 100.042 214.951 99.7912 213.785 99.5107C212.996 99.3208 212.219 99.5919 211.466 99.8226ZM243.958 123.818C243.587 126.021 243.168 127.809 244.062 129.948C245.435 131.507 246.698 131.831 248.633 132.29C249.094 130.142 249.655 128.2 249.028 126.026C247.407 124.23 246.374 123.955 243.958 123.818ZM202.879 90.3209C201.327 91.6016 200.242 92.1823 199.591 94.141C200.261 96.0461 202.376 97.2207 203.943 98.3749L205.369 97.9171C206.022 95.2333 206.089 93.4275 205.029 90.8608C204.338 90.6633 203.596 90.3831 202.879 90.3209ZM208.12 110.904C208.325 112.793 208.322 114.671 209.743 116.089C211.072 116.613 211.742 116.611 213.109 116.208C213.45 114.292 213.811 113.448 212.944 111.624C211.315 110.883 209.867 110.899 208.12 110.904ZM239.091 80.5226C240.73 81.2193 241.772 81.6476 243.537 81.1948C244.839 80.2422 245.34 79.477 245.925 77.9782C244.382 77.0173 243.406 76.4144 241.556 76.6242C239.946 77.9096 239.787 78.6155 239.091 80.5226Z"/>
	<path fill="#E88B23" transform="scale(0.234043 0.235)" d="M184.367 117.408L186.626 119.362L187.458 119.15L187.652 118.606L188.161 119.573L187.558 120.935L188.601 122.834C186.386 122.954 185.318 124.77 183.427 125.605C182.011 126.23 181.683 126.418 180.256 125.866C179.927 124.772 179.588 123.681 179.303 122.574C181.459 121.109 182.887 119.879 184.237 117.626L184.367 117.408Z"/>
	<path fill="#0243B7" transform="scale(0.234043 0.235)" d="M1049.81 222.987C1086.58 223.4 1123.37 223.057 1160.12 224.581C1173.77 225.147 1189.4 224.809 1202.57 228.348C1204.64 228.904 1206.23 229.423 1207.33 231.312C1207.15 231.78 1206.93 232.218 1206.57 232.572C1205.31 233.81 1202.87 234.586 1201.22 235.142C1194.81 237.313 1187.9 237.621 1181.2 238.24C1147.86 241.322 1114.99 238.688 1081.66 237.646L956.102 233.659Q856.944 231.092 757.756 230.195Q686.132 229.672 614.508 230.362L558.711 231.191C547.05 231.4 535.196 232.053 523.551 231.51C516.517 231.182 484.607 228.527 480.572 224.106C480.412 222.619 480.477 222.461 481.381 221.271C488.624 218.965 497.292 218.852 504.855 218.229C546.795 214.773 589.57 215.95 631.641 216.085Q823.077 217.43 1014.46 222.058C1025.57 222.243 1038.95 221.297 1049.81 222.987Z"/>
	<path fill="#9CC04D" transform="scale(0.234043 0.235)" d="M132.914 86.8839C130.164 85.4296 127.182 84.039 124.726 82.1228C119.52 78.0606 115.192 72.7201 110.394 68.1797C106.448 64.4457 101.638 61.3255 98.2353 57.0605C96.6821 55.1135 96.2606 53.6841 96.5332 51.2414C96.9944 50.5373 97.4979 49.8181 98.1989 49.3332C99.9084 48.1508 102.347 47.2968 104.433 47.694C111.477 49.0356 136.033 75.1268 140.86 82.0983C145.309 82.3296 148.983 83.3954 152.107 86.7487C154.466 87.2006 157.991 87.2749 160.074 88.3606C163.223 90.002 164.741 93.9843 167.645 95.9639C171.675 98.7104 176.877 98.8883 181.099 101.931C182.835 102.888 184.25 103.803 185.689 105.2C183.47 104.562 181.609 103.92 179.286 104.428L178.59 105.248C178.887 106.62 179.161 107.374 180.15 108.385L180.084 111.146L178.355 107.317C176.052 107.516 174.125 106.584 172.034 105.749C168.334 105.582 164.651 105.011 161.478 107.304C160.438 109.335 160.2 110.526 160.939 112.828C161.95 115.982 163.646 118.881 164.892 121.946C175.614 128.206 175.265 132.786 182.54 138.288Q185.404 139.901 188.289 141.475C191.774 144.535 193.983 149.04 197.851 151.561C198.253 151.823 198.647 152.076 199.075 152.296C202.952 155.953 222.998 165.877 228.128 165.75C229.206 165.723 229.836 165.583 230.701 164.957C230.951 164.759 231.204 164.588 231.461 164.399C234.734 161.992 240.575 161.809 244.581 161.078C240.525 174.589 238.613 194.18 243.464 207.695C248.52 211.513 252.821 214.768 254.746 221.077C255.158 222.943 255.811 224.461 254.672 226.23C252.251 229.989 247.447 236.194 243.723 238.543C242.158 238.737 240.896 237.827 239.716 236.901C239.039 236.369 238.499 235.744 237.981 235.062C238.214 232.798 239.796 231.371 241.521 229.958C244.537 227.488 252.007 223.419 252.748 219.597C250.791 218.71 249.302 219.049 247.325 219.796C239.512 222.75 218.437 236.03 215.066 243.349C212.687 248.515 213.875 254.134 210.531 259.185C207.813 255.524 204.911 252.345 201.326 249.515C195.951 244.359 181.782 237.992 174.548 235.292C171.279 234.072 169.505 233.662 166.25 235.151C162.625 238.447 157.313 237.703 153.294 239.813C154.442 236.136 156.289 232.683 157.436 228.999C159.15 223.491 157.962 197.608 154.912 192.967C151.782 188.204 146.895 186.428 144.07 181.013C141.08 180.761 125.592 187.097 120.9 188.21C117.013 189.132 112.423 188.341 108.744 189.498C107.087 189.58 105.017 189.9 103.398 189.632C101.412 189.303 100.605 187.824 99.4587 186.376C100.731 181.301 102.584 179.089 106.198 175.332L108.052 174.199C109.975 171.184 112.562 166.841 116.394 166.081C117.828 165.797 119.204 166.194 120.392 167.014C122.692 168.6 123.707 171.96 124.753 174.435C128.208 172.072 131.435 171.716 135.473 171.01C136.66 171.367 137.875 171.669 138.953 172.298C141.071 170.601 142.001 169.138 142.81 166.514C143.639 163.827 144.14 160.787 142.823 158.277C141.111 157.163 139.615 155.694 137.89 154.58C136.307 153.556 135.513 153.594 133.772 153.991L131.081 155.235C128.728 155.34 126.817 153.921 124.863 152.773C122.803 152.3 120.781 152.329 118.681 152.322L112.796 153.562C112.542 153.508 112.304 153.442 112.053 153.376C109.692 152.763 108.13 151.404 106.257 149.914C99.7539 149.547 93.363 148.542 86.8848 148.043C81.925 147.662 76.5474 147.979 71.6963 147.053C68.8699 146.513 66.0024 145.398 63.2744 144.476C61.2925 145.201 59.3353 146.15 57.3967 146.991C55.2326 145.956 53.0922 144.886 51.0388 143.642C47.9142 141.749 42.5554 138.501 41.7179 134.577C41.3526 132.866 42.007 131.187 42.9937 129.804C43.972 128.434 45.8185 126.859 47.5587 126.684C56.2837 125.808 73.2121 131.147 82.8016 132.537C87.9788 133.287 93.2877 132.972 98.4314 134.009C101.303 134.589 104.082 137.315 106.624 136.934C108.577 133.772 111.317 130.192 110.671 126.277C109.467 124.457 109.217 124.521 107.098 123.878C102.035 122.672 96.8713 122.528 91.8187 121.361C85.3326 119.863 79.0702 117.18 72.6581 115.345C65.2918 113.236 53.7676 112.758 47.5338 108.641C44.9873 106.959 42.9301 104.459 42.4029 101.379C42.0805 99.4961 42.4509 97.6523 43.6146 96.1178C44.9631 94.3396 47.4395 93.3441 49.6133 93.1406C54.0513 92.7253 76.6842 100.955 81.1355 103.243C83.267 104.339 85.2946 106.208 87.1211 107.755C92.494 106.76 96.5829 106.661 101.503 109.473C105.609 111.82 108.475 116.293 109.714 120.768L110.462 121.626L111.079 121.348C113.457 117.057 114.437 112.404 114.738 107.544C116.759 105.494 118.17 102.58 119.85 100.216C123.711 94.786 127.766 91.02 132.914 86.8839ZM145.673 180.906C149.455 174.662 156.28 172.426 160.621 166.527C160.517 166.314 160.407 166.108 160.286 165.903L160.086 165.568C158.916 163.582 157.791 162.85 155.822 161.806C150.283 164.398 149.238 172.252 143.838 173.796C143.548 176.381 143.48 178.465 144.07 181.013C146.895 186.428 151.782 188.204 154.912 192.967C157.962 197.608 159.15 223.491 157.436 228.999C156.289 232.683 154.442 236.136 153.294 239.813C157.313 237.703 162.625 238.447 166.25 235.151C169.505 233.662 171.279 234.072 174.548 235.292C181.782 237.992 195.951 244.359 201.326 249.515C204.911 252.345 207.813 255.524 210.531 259.185C213.875 254.134 212.687 248.515 215.066 243.349C218.437 236.03 239.512 222.75 247.325 219.796C249.302 219.049 250.791 218.71 252.748 219.597C252.007 223.419 244.537 227.488 241.521 229.958C239.796 231.371 238.214 232.798 237.981 235.062C238.499 235.744 239.039 236.369 239.716 236.901C240.896 237.827 242.158 238.737 243.723 238.543C247.447 236.194 252.251 229.989 254.672 226.23C255.811 224.461 255.158 222.943 254.746 221.077C252.821 214.768 248.52 211.513 243.464 207.695C238.613 194.18 240.525 174.589 244.581 161.078C240.575 161.809 234.734 161.992 231.461 164.399C231.204 164.588 230.951 164.759 230.701 164.957C229.836 165.583 229.206 165.723 228.128 165.75C222.998 165.877 202.952 155.953 199.075 152.296C198.647 152.076 198.253 151.823 197.851 151.561C193.983 149.04 191.774 144.535 188.289 141.475C185.802 146.81 186.769 151.871 184.704 156.578C181.639 163.565 161.661 176.114 154.406 178.785C151.565 179.83 148.654 180.428 145.673 180.906ZM108.052 174.199C111.437 173.801 115.075 172.462 118.391 171.587L119.723 171.936C120.989 173.286 120.796 174.101 120.915 175.892C121.111 177.681 121.131 180.32 121.869 181.922C122.537 183.37 123.07 183.908 124.53 184.387L125.623 183.288C126.707 180.295 125.97 177.271 124.753 174.435C123.707 171.96 122.692 168.6 120.392 167.014C119.204 166.194 117.828 165.797 116.394 166.081C112.562 166.841 109.975 171.184 108.052 174.199ZM171.013 151.649C168.079 152.845 163.443 156.262 162.052 159.177C161.807 159.69 161.719 160.224 161.709 160.788C162.386 161.994 162.714 162.395 164.097 162.802C164.338 162.872 164.366 162.871 164.58 162.902C168.449 160.15 175.965 159.267 178.537 155.146C179.467 153.655 179.239 152.663 178.958 151.054C177.534 150.725 174.621 153.31 173.035 154C172.74 154.128 172.145 153.775 171.834 153.652L171.013 151.649ZM126.803 97.2967C124.486 100.996 121.814 104.879 120.662 109.124L121.173 110.378L122.812 110.912C125.112 108.375 130.027 103.535 129.763 99.9134C129.722 99.357 129.571 98.836 129.389 98.3124C128.508 97.8105 127.812 97.4953 126.803 97.2967ZM137.463 85.6413C138.126 88.3958 139.316 96.5606 141.606 98.1465C141.787 98.272 141.847 98.2937 142.028 98.3807L143.767 97.8671C144.399 94.867 144.59 92.0536 142.761 89.3744C141.436 87.4343 139.579 86.468 137.463 85.6413ZM156.659 118.914C155.93 120.432 155.405 121.135 156.07 122.823C156.716 124.463 158.792 125.797 160.411 126.384C161.311 126.709 162.314 126.847 163.258 126.96C163.935 125.019 164.038 124.756 163.508 122.789C161.962 120.782 159.098 119.493 156.659 118.914ZM118.455 138.306C118.41 140.161 118.112 142.394 118.806 144.139L121.473 145.934C123.371 144.695 124.31 143.197 125.481 141.32L123.691 138.397C121.746 137.5 120.518 137.981 118.455 138.306ZM108.266 140.042C107.654 141.686 106.827 143.06 107.638 144.815C108.061 145.731 108.763 146.626 109.351 147.444C110.645 147.523 111.985 147.542 113.263 147.756C113.206 146.059 113.238 144.352 113.233 142.654C113.185 142.598 113.139 142.541 113.089 142.487C113.006 142.398 112.918 142.313 112.834 142.224C111.381 140.697 110.26 140.411 108.266 140.042ZM130.392 104.593C130.157 106.702 130.17 107.127 131.031 109.055C132.673 110.579 134.009 110.928 136.126 111.323C136.444 109.509 137.018 107.618 136.035 105.932C134.471 104.579 132.354 104.705 130.392 104.593ZM129.261 143.062C128.179 144.557 126.825 146.067 126.632 147.961L130.327 149.969L132.535 148.213C133.127 146.701 133.245 146.226 133.037 144.61C131.487 143.264 131.313 143.225 129.261 143.062Z"/>
	<path fill="#98B23D" transform="scale(0.234043 0.235)" d="M113.233 142.654C115.254 142.318 116.929 139.664 118.455 138.306C118.41 140.161 118.112 142.394 118.806 144.139C117.772 145.109 115.668 146.492 115.048 147.711L113.263 147.756C113.206 146.059 113.238 144.352 113.233 142.654Z"/>
	<path fill="#A9C747" transform="scale(0.234043 0.235)" d="M118.391 171.587L119.723 171.936C120.989 173.286 120.796 174.101 120.915 175.892C120.717 178.028 120.83 181.085 119.053 182.545C118.583 182.932 118.103 183.253 117.575 183.553L115.254 182.211C115.181 180.527 116.036 179.403 116.909 178.051C116.562 177.279 116.024 176.291 115.957 175.446C115.833 173.895 117.421 172.682 118.391 171.587Z"/>
	<path fill="#A9C747" transform="scale(0.234043 0.235)" d="M118.806 144.139L121.473 145.934C122.11 147.012 123.968 147.743 125.166 148.025C125.832 148.182 125.999 148.198 126.632 147.961L130.327 149.969L130.599 150.565C129.043 151.299 126.56 152.896 124.863 152.773C122.803 152.3 120.781 152.329 118.681 152.322L112.796 153.562C110.873 151.322 109.831 150.397 109.351 147.444C110.645 147.523 111.985 147.542 113.263 147.756L115.048 147.711C115.668 146.492 117.772 145.109 118.806 144.139Z"/>
</svg>
