<?xml version="1.0" encoding="utf-8" ?>
<svg xmlns="http://www.w3.org/2000/svg" xmlns:xlink="http://www.w3.org/1999/xlink" width="452" height="452">
	<defs>
		<linearGradient id="gradient_0" gradientUnits="userSpaceOnUse" x1="279.84708" y1="419.07614" x2="256.41507" y2="119.2298">
			<stop offset="0" stop-color="#39B80C"/>
			<stop offset="1" stop-color="#72EF63"/>
		</linearGradient>
	</defs>
	<path fill="url(#gradient_0)" transform="matrix(0.869231 0 0 0.869231 -6.10352e-05 0)" d="M375.31 109.307L375.582 109.261C378.14 108.941 381.611 109.209 383.815 110.665C386.063 112.15 386.213 115.283 387.809 117.29C389.416 119.311 392.364 119.64 393.871 121.611C395.319 123.506 395.421 126.314 396.853 128.313C398.054 129.987 400.666 130.31 401.892 131.964C403.267 133.817 403.358 136.383 404.496 138.346C405.692 140.408 408.45 140.825 409.989 142.57C411.717 144.53 411.443 148.023 413.161 149.784C414.275 150.926 415.881 151.427 417.082 152.434C418.011 153.213 418.267 154.618 418.393 155.771C418.861 160.042 419.498 168.686 417.566 172.329C416.681 173.998 414.633 174.983 413.486 176.521C411.959 178.569 411.676 181.602 410.298 183.853C409.166 185.702 407.017 186.623 405.832 188.445C404.325 190.762 403.851 193.695 402.343 196.088C401.316 197.716 399.645 198.729 398.664 200.336C396.85 203.31 395.485 206.554 393.613 209.502C391.932 212.15 389.666 214.411 388.084 217.124C386.876 219.193 386.228 221.55 384.917 223.562C383.666 225.484 381.645 226.74 380.47 228.751C379.318 230.726 378.963 233.119 377.775 235.075C376.584 237.034 374.191 238.082 372.919 240.071C371.629 242.088 371.441 244.725 370.112 246.669C368.892 248.452 366.635 249.217 365.452 251.182C364.163 253.324 364.015 256.031 362.524 258.086C361.335 259.725 359.068 260.543 357.97 262.286C356.629 264.414 356.426 267.096 354.965 269.192C353.76 270.922 351.533 271.743 350.401 273.486C349.056 275.559 348.855 278.298 347.463 280.436C346.331 282.175 344.16 282.927 343.026 284.703C341.637 286.878 341.391 289.648 340.008 291.844C338.934 293.549 337.157 294.18 335.927 295.63C334.302 297.547 333.988 300.685 332.537 302.855C331.37 304.601 329.28 305.677 328.24 307.384C326.946 309.508 326.347 312.072 325.037 314.234C323.936 316.05 322.168 317.25 321.016 318.99C319.576 321.163 318.563 323.782 317.263 326.061C315.436 329.264 313.043 332.015 311.127 335.134C309.636 337.563 308.695 340.303 307.224 342.694C306.062 344.583 304.023 345.757 302.82 347.71C301.565 349.746 301.222 352.37 299.936 354.327C298.753 356.126 296.523 357.154 295.291 359.023C293.889 361.151 293.81 363.85 292.313 365.949C291.093 367.661 288.982 368.406 287.831 370.259C286.535 372.345 286.324 375.042 285.012 377.05C283.917 378.727 281.499 379.447 280.402 381.164C278.973 383.399 278.843 386.211 277.422 388.407C276.36 390.05 274.146 390.712 273.006 392.313C271.458 394.485 271.465 397.439 270.046 399.615C268.887 401.39 266.658 401.812 265.459 403.438C263.997 405.421 263.87 408.239 262.502 410.33C261.019 412.595 258.23 412.675 256.513 414.506C255.008 416.11 254.634 418.781 253.164 420.448C251.884 421.899 247.664 422.17 245.801 422.352C241.586 422.764 231.506 422.968 228.008 421.001C226.356 420.072 225.648 417.387 224.912 415.744C224.767 415.421 224.538 414.678 224.309 414.441C223.89 414.009 222.701 413.558 222.107 413.287C220.555 412.581 219.023 411.889 217.832 410.618C216.652 409.358 216.185 407.579 215.589 405.996C215.379 405.44 215.154 404.624 214.75 404.187C214.273 403.672 213.36 403.243 212.767 402.854C211.673 402.136 210.606 401.33 209.692 400.389C207.785 398.427 207.027 395.743 205.263 393.723C203.432 391.625 201.049 390.009 199.216 387.869C197.36 385.702 196.18 383.011 194.241 380.943C192.553 379.143 190.286 377.978 188.716 376.064C187.193 374.206 186.809 371.601 185.208 369.844C183.843 368.347 181.709 367.668 180.39 366.093C179.287 364.776 178.766 363.312 178.157 361.735C177.915 361.107 177.374 359.406 176.833 358.985C175.551 357.99 173.86 357.551 172.596 356.438C170.922 354.965 170.566 352.919 169.825 350.934C169.634 350.422 169.406 349.6 169.064 349.191C168.684 348.735 167.787 348.348 167.274 348.044C165.63 347.072 163.89 346.078 162.823 344.441C162.01 343.193 161.609 341.614 161.158 340.202C161.034 339.814 160.928 339.13 160.724 338.822C160.451 338.41 158.361 337.522 157.808 337.196C156.645 336.511 155.586 335.737 154.699 334.709C153.25 333.031 152.703 330.795 151.384 329.058C150.622 328.055 149.411 327.2 148.434 326.404C146.565 324.872 144.527 323.132 143.16 321.126C141.944 319.344 140.951 317.134 139.461 315.581C137.884 313.939 135.795 312.842 134.401 311.009C132.882 309.012 132.158 306.462 130.518 304.588C129.114 302.983 126.974 302.28 125.658 300.54C124.26 298.692 124.043 296.017 122.571 294.281C121.165 292.622 118.626 292.446 117.263 290.772C115.613 288.748 115.733 285.512 114.498 283.232C113.47 281.334 111.141 280.426 110.157 278.535C108.165 274.708 110.38 267.848 112.479 264.443C113.373 262.993 114.503 261.833 115.173 260.233C116.161 257.873 116.635 254.625 118.052 252.562C119.388 250.619 121.689 249.29 122.855 247.231C123.998 245.212 123.995 242.614 125.326 240.624C125.94 239.706 126.935 238.915 127.741 238.164C128.64 237.327 129.705 236.429 130.294 235.34C131.033 233.971 131.341 232.277 131.867 230.808C132.174 229.95 132.507 228.976 133.074 228.257C134.27 226.738 136.316 225.455 137.28 223.83C138.416 221.916 139.063 217.439 141.32 216.57C143.719 215.646 150.688 215.6 153.036 216.799C155.135 217.871 155.787 220.486 156.494 222.549C157.652 225.927 161.127 226.207 163.509 228.421C165.939 230.681 167.18 233.81 169.293 236.333C171.014 238.389 173.313 239.893 175.001 241.942C176.432 243.679 176.764 246.067 178.369 247.833C179.957 249.581 182.49 250.405 183.911 252.339C185.209 254.105 185.353 256.61 186.658 258.397C187.965 260.185 190.721 260.838 192.061 262.742C193.39 264.631 193.455 267.121 194.924 269.014C196.303 270.79 198.931 271.101 200.318 272.921C201.713 274.753 201.655 277.385 202.948 279.232C204.3 281.163 207.148 281.275 208.562 283.213C209.604 284.64 209.97 286.354 210.416 288.027C210.515 288.399 210.62 289.272 210.819 289.559C210.995 289.815 211.83 290.218 212.123 290.397C213.755 291.394 215.436 292.089 216.768 293.52C218.478 295.358 218.609 298.03 220.13 299.863C220.913 300.806 222.138 301.453 223.129 302.16C224.222 302.94 225.243 303.871 226.146 304.864C229.586 308.646 231.131 313.423 235.752 316.205C236.234 316.27 236.545 316.289 237.008 316.102C237.734 315.81 238.418 315.361 238.966 314.802C241.197 312.525 242.257 309.807 244.115 307.354C245.219 305.896 246.622 304.753 247.533 303.142C248.66 301.151 249.18 298.684 250.446 296.813C251.78 294.839 253.917 293.518 255.163 291.449C256.384 289.423 256.763 286.922 258.075 284.973C259.39 283.019 261.713 281.909 262.948 279.898C264.182 277.89 264.294 275.328 265.808 273.45C267.162 271.771 269.166 270.687 270.376 268.853C271.672 266.887 271.676 264.26 273.117 262.311C274.436 260.528 276.653 259.538 277.974 257.674C279.24 255.887 279.416 253.3 280.548 251.341C281.654 249.426 284.073 248.421 285.362 246.63C286.755 244.697 286.775 242.015 288.161 240.068C289.501 238.186 291.875 237.138 293.093 235.161C294.336 233.143 294.49 230.478 295.818 228.523C296.996 226.788 299.081 225.746 300.271 224.027C301.675 221.999 302.033 219.232 303.407 217.124C304.561 215.353 306.544 214.188 307.722 212.452C309.128 210.379 309.733 207.697 311.069 205.523C312.095 203.856 313.661 202.572 314.747 200.929C317.064 197.425 318.719 193.448 320.894 189.847C322.134 187.793 323.918 186.161 325.187 184.141C326.437 182.15 327.044 179.769 328.289 177.785C329.522 175.822 331.624 174.504 332.894 172.554C334.226 170.512 334.435 167.895 335.869 165.903C337.175 164.089 339.329 162.927 340.495 161.002C341.693 159.022 341.989 156.537 343.258 154.614C344.356 152.951 346.47 151.966 347.703 150.346C349.199 148.381 349.225 145.611 350.557 143.603C351.776 141.766 354.07 140.711 355.399 138.963C356.884 137.012 356.879 134.314 358.236 132.353C359.556 130.447 361.859 129.434 363.18 127.523C364.637 125.415 364.605 122.44 366.162 120.31C367.467 118.525 369.992 117.822 371.287 115.889C371.969 114.872 372.323 113.532 372.81 112.406C373.395 111.05 373.859 109.883 375.31 109.307Z"/>
	<path fill="#62E748" transform="matrix(0.869231 0 0 0.869231 -6.10352e-05 0)" d="M404.569 171.514C405.49 171.419 405.767 171.334 406.631 171.726C407.107 172.938 407.282 173.886 407.038 175.176L406.983 175.449C406.699 176.935 406.117 177.632 404.981 178.623C404.762 178.704 404.463 178.83 404.232 178.845C403.506 178.894 403.205 178.642 402.662 178.242C402.143 177.053 402.316 174.969 402.682 173.745C403.019 172.621 403.581 172.094 404.569 171.514Z"/>
	<path fill="#62E748" transform="matrix(0.869231 0 0 0.869231 -6.10352e-05 0)" d="M209.084 298.213C210.027 298.131 210.687 297.994 211.504 298.616C212.592 299.445 212.947 300.794 213.095 302.077C213.241 303.351 213.181 304.133 212.393 305.131L211.783 305.061C210.647 304.882 209.294 304.485 208.657 303.454C208.003 302.396 207.637 300.528 207.993 299.323C208.203 298.61 208.472 298.578 209.084 298.213Z"/>
	<path fill="#62E748" transform="matrix(0.869231 0 0 0.869231 -6.10352e-05 0)" d="M155.092 232.959L156.406 232.897C157.122 233.207 157.635 233.533 158.13 234.151C159.245 235.547 159.348 237.571 159.14 239.28C158.735 239.898 158.774 239.874 158.057 240.044L157.259 239.937C156.107 239.736 155.253 239.464 154.574 238.458C153.871 237.418 153.386 235.181 153.87 233.975C154.158 233.259 154.428 233.231 155.092 232.959Z"/>
	<path fill="#62E748" transform="matrix(0.869231 0 0 0.869231 -6.10352e-05 0)" d="M146.074 222.549L146.821 222.481C147.791 222.482 148.839 223.054 149.461 223.783C150.41 224.896 150.29 226.699 150.186 228.051C149.469 229.143 148.85 229.091 147.662 229.418L146.123 229.481C145.315 229.43 144.374 229.388 143.904 228.643C143.281 227.653 143.423 225.553 143.841 224.514C144.286 223.408 145.008 222.978 146.074 222.549Z"/>
</svg>
