<?xml version="1.0" encoding="utf-8" ?>
<svg xmlns="http://www.w3.org/2000/svg" xmlns:xlink="http://www.w3.org/1999/xlink" width="452" height="452">
	<defs>
		<linearGradient id="gradient_0" gradientUnits="userSpaceOnUse" x1="227.4117" y1="394.83261" x2="224.34077" y2="56.940102">
			<stop offset="0" stop-color="#DA2323"/>
			<stop offset="1" stop-color="#FF6866"/>
		</linearGradient>
	</defs>
	<path fill="url(#gradient_0)" d="M221.433 56.6099L221.647 56.6026C226.835 56.4775 232.068 56.7961 237.25 57.0203C245.293 57.3682 253.47 57.7641 261.398 59.2132C278.291 62.301 294.142 69.0717 309.03 77.4447C314.708 80.6378 320.502 83.908 325.766 87.7667C331.859 92.2337 337.347 97.2966 342.854 102.451C348.48 107.716 353.615 113.232 358.631 119.076C360.942 121.769 363.364 124.448 365.46 127.315C369.759 133.193 373.642 139.779 377.078 146.19C379.325 150.383 381.638 154.673 383.441 159.074C385.699 164.584 387.414 170.412 389.081 176.125C390.606 181.351 392.226 186.578 393.13 191.957C394.576 200.556 394.896 209.699 395.177 218.412L394.923 243.557C394.626 249.343 394.284 255.038 393.261 260.75C392.23 266.505 390.625 272.065 388.949 277.655C387.523 282.411 386.07 287.141 384.073 291.694C381.81 296.854 378.983 301.791 376.245 306.71C373.326 311.956 370.527 317.098 367.119 322.059C362.607 328.627 357.329 334.735 351.88 340.538C344.824 348.052 337.389 355.342 329.304 361.753C322.819 366.895 316.012 371.159 308.843 375.24C303.188 378.458 297.466 381.685 291.488 384.271C286.056 386.62 280.456 388.26 274.754 389.798C268.698 391.432 262.711 392.869 256.498 393.794C247.928 395.071 239.109 395.189 230.458 395.463C218.145 395.597 205.577 395.922 193.375 394.071C188.628 393.352 183.872 391.921 179.255 390.618C173.886 389.102 168.468 387.614 163.265 385.587C155.602 382.601 148.148 378.593 141.075 374.405L130.048 367.662C124.646 364 119.33 359.587 114.547 355.15L104.328 345.035C98.599 339.254 93.0933 333.489 88.1176 327.028C82.4791 319.707 78.0456 311.921 73.7732 303.75C67.138 291.06 61.4897 278.147 58.7795 263.995C57.2075 255.786 56.8983 247.711 56.5915 239.393L56.6619 214.389C56.8558 206.682 56.9921 198.745 58.2677 191.125C58.9852 186.839 60.2172 182.646 61.488 178.5C63.7816 171.017 66.4027 163.5 69.6369 156.366L75.4263 145.067C78.744 138.806 82.1849 132.67 86.3386 126.911C89.5714 122.429 93.5287 118.079 97.2955 114.038C102.88 108.046 108.78 101.927 115.002 96.5888C125.348 87.7134 136.749 80.3503 148.852 74.1129C152.408 72.28 155.916 70.2291 159.578 68.625C162.561 67.3184 165.716 66.3015 168.795 65.2471C174.347 63.3458 180.174 61.5486 185.914 60.3075C197.451 57.8125 209.662 57.027 221.433 56.6099Z"/>
	<path fill="#FE7472" d="M146.539 126.992L146.292 127.083C144.052 125.499 142.416 123.504 140.593 121.5C139.754 120.577 138.312 119.073 138.186 117.782L138.127 116.875L138.875 116C138.613 115.503 138.358 115.2 137.915 114.846L137.627 114.625L137.877 114C137.333 113.892 136.04 114.12 135.625 113.873C135.388 113.731 135.193 113.372 134.939 113.25L134.688 113.188C134.223 112.955 134.006 112.886 133.501 112.749C132.842 112.57 132.504 111.782 132.127 111.25L131.751 110.749C131.516 110.258 131.434 110.156 131.037 109.776L130.877 109.625L130.877 108.5C130.243 107.549 130.905 105.486 130.877 104.25L131.125 104C131.117 103.742 131.11 103.529 131.182 103.277C131.386 102.556 131.48 101.787 131.814 101.118C132.115 100.516 132.092 99.7777 132.377 99.25C132.634 98.7758 132.855 98.5716 133.001 98.0012C133.088 97.6635 133.082 97.5557 133.299 97.2662C133.57 96.9044 133.466 97.0867 133.689 96.6412L133.877 96.25L134.251 95.5012L134.377 95.125C134.868 95.0085 135.236 94.9211 135.652 94.6277L136 94.3775C136.419 94.1058 137.406 93.5426 137.625 93.1275C137.646 93.0886 137.667 92.5501 137.689 92.5C137.801 92.2359 138.331 91.9661 138.5 91.6887C138.923 90.993 139.598 90.5765 140 89.9387C140.298 89.4667 140.406 88.9378 140.896 88.5877C141.467 88.1798 141.825 87.5239 142.375 87.1275C142.667 86.9167 142.754 87.0263 142.939 86.75L143.125 86.3775L143.312 86.6875L143.439 86.5L143.625 86.1275L143.812 86.4375C144.298 86.0393 144.704 85.5899 145.125 85.1275L145.312 85.4375L145.439 85.25L145.625 84.8775L145.812 85.1875L146.062 85.0012L146.375 85L146.377 84.625C146.862 84.3 146.872 84.1334 147.125 83.6275L147.25 83.875L147.5 83.875C147.847 83.6162 147.661 83.7422 148.062 83.5012L148.375 83.5L148.875 82.8775L149.25 83L149.751 82.5012L150.125 82.5L150.625 81.8775L151 82L151.501 81.5012L152 81.375C152.201 81.2732 152.369 81.1171 152.562 81.0012L152.875 81L153.125 80.6275L153.625 80.6275L154.625 79.6275L155.25 79.6275C155.659 79.2811 155.981 79.1374 156.501 79.0012C157.051 78.8576 157.496 78.5619 158.032 78.4262L158.25 78.375C158.836 78.0778 159.398 77.6802 160 77.3775L160.751 77.0012L161.75 76.6275L167.375 74.25C167.772 74.1435 167.98 74.1416 168.368 73.9473C168.921 73.6702 169.422 73.5568 170 73.3775L170.75 73.125C171.387 73.0256 171.726 72.8569 172.312 72.5625C173.179 72.6913 173.489 72.0633 174.25 71.875C175.329 71.6079 173.617 72.2801 174.957 71.7195L175.312 71.5625L175.75 71.6275C176.225 71.3761 176.969 70.9331 177.5 70.875C178.124 70.8068 178.445 70.4797 179 70.375C179.887 70.2077 181.021 69.9935 181.766 69.431C182.093 69.1835 181.927 69.2609 182.384 69.1098L182.751 69.0012L186.001 67.7512L186.5 67.6275L186.875 67.3775L187.25 67.1887L187.562 67.0012L187.875 67L188.625 65.8775L189.188 65.9375L189.75 65.3775L190 65.625C190.457 65.3233 190.231 65.389 190.695 65.3452L191.062 65.3125C191.465 65.2241 191.676 65.0235 192.109 65.0787L192.312 65.1262L192.625 64.8775L192.627 64.625C193.485 64.0364 193.743 64.1243 194.75 64.1225L195.122 63.875C196.253 63.9005 197.122 63.5913 198.216 63.6145L198.5 63.6225C199.073 63.2418 199.816 63.3732 200.5 63.372C201.066 62.9968 201.585 63.1237 202.25 63.1225C202.777 62.772 205.266 62.6005 205.966 62.6148L206.25 62.6225C206.901 62.1897 207.963 62.3695 208.75 62.3662C209.316 61.9997 209.839 62.1237 210.5 62.1225C211.151 61.6898 212.213 61.872 213 61.8702C213.711 61.4021 215.128 61.6233 216 61.6225C216.997 60.9601 228.218 61.3729 230.25 61.3725C230.988 61.8647 232.584 61.6225 233.5 61.6225C234.185 62.0723 235.418 61.8712 236.25 61.8725C236.903 62.3078 237.961 62.1225 238.75 62.1225C239.433 62.577 240.668 62.3724 241.5 62.3725C242.183 62.8265 242.944 62.5206 243.737 62.676L244.001 62.7453L244.5 62.8724L244.5 63L244.125 63.3725L244.25 63.3775C244.759 63.7157 244.908 63.6258 245.5 63.6275C246.027 63.276 246.588 63.308 247.21 63.4315L248.749 63.7512L248.873 64.125L249.375 64.1275L249.75 63.8775L250.123 64.25L250.5 64.3775C251.026 64.6406 250.919 64.6252 251.5 64.6275C252.031 64.9801 252.381 64.8761 253 64.8775L253.25 65.125C253.867 65.1135 254.227 65.0914 254.75 65.4387L255 65.625L255.375 65.6275L255.562 65.9375C256.015 65.867 256.304 65.8958 256.749 66.0012L256.812 66.4375L257.062 66.2512L257.25 66.375L257.625 66.3775L257.812 66.6875L258.5 66.6275L259.062 67.1875L259.375 66.8775L259.812 67.4375L260.062 67.2512C260.474 67.2512 261.653 67.6283 262 67.8775L262.312 68.1875L262.625 67.8775L263.062 68.4375L263.5 68.1275C263.877 68.3247 264.218 68.4988 264.624 68.634L264.999 68.7512L265.749 69.0012C266.103 69.1014 266.285 69.1409 266.632 69.3144L266.999 69.5012L269.999 70.7512L270.312 70.8125L270.623 71.125C271.236 70.9219 271.786 71.3057 272.391 71.5092C274.304 72.1535 276.53 73.322 278.46 73.705C279.357 73.8829 280.126 74.2571 280.999 74.5012L281.5 74.6275C282.281 75.0318 281.451 74.7596 282.288 74.9934C282.622 75.0866 282.833 75.1611 283.156 75.3223C283.832 75.6597 284.568 75.806 285.25 76.1275L287.647 77.1417C288.451 77.4097 288.531 77.5609 289.062 78.1875L289.75 78.1275L290.188 78.5012L290.5 78.6887L290.75 78.875L291.125 78.8775L291.5 79.375L291.875 79.3775L292.499 79.7512C292.937 79.981 293.215 80.0698 293.578 80.431L293.812 80.6875L294.375 80.6275L295 81.375L295.375 81.3775L295.999 81.7512C296.69 82.1154 297.223 82.6248 297.898 82.9629L298.25 83.1275L299.249 83.7512C299.595 83.9158 299.817 83.9187 300.102 84.203L300.25 84.375C300.844 84.4912 301.363 84.7179 301.797 85.1498L302 85.375L302.875 85.6275C303.15 85.9427 303.363 86.2517 303.75 86.4387C304.09 86.603 304.231 86.6071 304.553 86.8645L304.873 87.125C305.412 87.4921 305.689 87.6829 306.108 88.1971L306.25 88.375L306.625 88.3775C307.351 89.3498 308.381 89.9869 309.123 90.9269C309.852 91.8501 311.282 92.8435 311.801 93.7773C312.369 94.7991 313.113 95.7167 313.71 96.7188L313.873 97L314.123 97.375C314.297 97.6545 314.432 97.9278 314.648 98.1817C315.077 98.6854 315.404 99.11 315.569 99.7741L315.623 100L315.873 100.375L315.873 101.25C316.034 101.967 316.106 102.493 316.123 103.25C316.464 103.762 316.373 103.905 316.373 104.5L316.125 104.873L316.25 105.375C316.286 105.562 316.292 105.825 316.373 106C316.717 106.752 316.869 106.843 316.875 107.753L316.873 108C317.314 108.662 317.023 109.34 317.179 110.103L317.373 111C316.86 111.772 316.991 113.671 317.181 114.603L317.373 115.5C317.513 116.345 318.001 116.987 318.373 117.75L318.125 118.123C317.432 118.123 317.426 118.064 316.877 117.625L316.749 118.249L316.38 118.222C316.67 118.635 316.623 118.708 317.127 118.875L317.251 118.501L318.125 118.127C318.507 118.571 318.526 118.784 318.749 119.251L319.123 119.75L318.625 120.25L323.938 124.751L327.665 128.246C328.731 129.196 329.684 130.532 330.625 131.627C332.069 133.309 333.56 134.988 334.848 136.792C335.773 138.086 337.121 139.243 337.875 140.627C338.121 141.079 338.363 141.434 338.71 141.808C339.22 142.358 338.834 141.864 339.125 142.5L339.239 142.648L338.831 142.625C337.71 141.627 336.77 139.972 335.836 138.769L329.702 131.264C325.29 126.186 320.089 122.131 314.964 117.822C306.73 111.593 298.278 105.537 289.167 100.631C284.201 97.9568 278.792 95.8746 273.5 93.9396C268.703 92.1853 263.964 90.5047 259 89.2614C253.461 87.8743 247.849 87.1807 242.183 86.5724C236.246 85.935 230.169 85.4135 224.194 85.5575C215.713 85.7619 207.146 86.8209 198.746 87.9821C192.402 88.859 186.296 90.6515 180.283 92.7926C169.233 96.7276 159.089 101.965 149.284 108.374C145.757 110.679 141.298 113.42 138.78 116.856L138.416 117.381C138.942 118.439 139.482 119.437 140.238 120.351C141.606 122.005 143.167 123.543 144.69 125.053C145.005 125.365 146.504 126.652 146.539 126.992Z"/>
	<path fill="#FAFAFB" d="M146.539 126.992C146.504 126.652 145.005 125.365 144.69 125.053C143.167 123.543 141.606 122.005 140.238 120.351C139.482 119.437 138.942 118.439 138.416 117.381L138.78 116.856C141.298 113.42 145.757 110.679 149.284 108.374C159.089 101.965 169.233 96.7276 180.283 92.7926C186.296 90.6515 192.402 88.859 198.746 87.9821C207.146 86.8209 215.713 85.7619 224.194 85.5575C230.169 85.4135 236.246 85.935 242.183 86.5724C247.849 87.1807 253.461 87.8743 259 89.2614C263.964 90.5047 268.703 92.1853 273.5 93.9396C278.792 95.8746 284.201 97.9568 289.167 100.631C298.278 105.537 306.73 111.593 314.964 117.822C320.089 122.131 325.29 126.186 329.702 131.264L335.836 138.769C336.77 139.972 337.71 141.627 338.831 142.625C340.246 144.963 342.059 147.183 343.625 149.433C346.371 153.378 348.979 157.581 351.204 161.844C353.192 165.652 354.719 169.61 356.278 173.605C362.538 189.644 365.813 206.754 365.932 223.988C365.974 230.049 365.385 236.023 364.745 242.038L363.129 255.013C362.069 261.284 360.028 267.244 357.86 273.201C356.223 277.698 354.629 282.285 352.642 286.641C349.464 293.604 345.398 300.381 340.861 306.54C338.849 309.27 337.08 311.837 334.272 313.844C333.091 312.231 331.242 310.932 329.76 309.573L323.255 303.175L269.05 248.42L198.526 177.967L166.932 146.725C160.241 140.124 153.7 133.057 146.539 126.992Z"/>
	<path fill="#FAFAFB" d="M116.809 138.072C118.899 139.551 120.938 141.527 122.842 143.26L139.308 159.734L194.168 214.758L279.696 300.134L299.996 320.369C304.637 324.892 309.462 329.193 313.846 333.976C311.522 337.326 308.199 339.532 304.903 341.84C295.446 348.461 285.64 353.655 274.766 357.508C268.502 359.73 262.049 361.764 255.544 363.165C250.61 364.228 245.454 364.792 240.429 365.27C233.216 365.957 225.955 366.354 218.71 365.929C210.015 365.42 200.708 364.503 192.219 362.551C187.303 361.42 182.339 359.643 177.607 357.892C171.142 355.5 164.605 352.886 158.536 349.595C151.768 345.925 145.118 341.118 139.048 336.401C133.508 332.096 128.04 327.861 123.373 322.587C116.086 314.353 109.555 305.425 103.845 296.041C101.46 292.122 99.06 288.146 97.0991 283.995C95.1767 279.926 93.6844 275.731 92.2026 271.488C90.6827 267.135 89.2821 262.838 88.3324 258.32C87.1369 252.632 86.6638 246.677 86.1679 240.89C85.5243 233.378 85.0994 225.75 85.5808 218.215C86.1221 209.741 87.037 200.928 88.989 192.666C92.5257 177.697 99.2598 162.583 107.577 149.696C110.277 145.513 113.05 141.387 116.809 138.072Z"/>
</svg>
